<?xml version="1.0" encoding="UTF-8" standalone="no"?>
<!-- Created with Inkscape (http://www.inkscape.org/) -->

<svg
   xmlns:dc="http://purl.org/dc/elements/1.1/"
   xmlns:cc="http://creativecommons.org/ns#"
   xmlns:rdf="http://www.w3.org/1999/02/22-rdf-syntax-ns#"
   xmlns:svg="http://www.w3.org/2000/svg"
   xmlns="http://www.w3.org/2000/svg"
   xmlns:sodipodi="http://sodipodi.sourceforge.net/DTD/sodipodi-0.dtd"
   xmlns:inkscape="http://www.inkscape.org/namespaces/inkscape"
   width="233.045mm"
   height="196.82353mm"
   viewBox="0 0 233.045 196.82353"
   version="1.1"
   id="svg1551"
   sodipodi:docname="chat.svg"
   inkscape:version="0.92.3 (2405546, 2018-03-11)">
  <defs
     id="defs1545" />
  <sodipodi:namedview
     id="base"
     pagecolor="#ffffff"
     bordercolor="#666666"
     borderopacity="1.0"
     inkscape:pageopacity="0.0"
     inkscape:pageshadow="2"
     inkscape:zoom="0.49497475"
     inkscape:cx="684.69512"
     inkscape:cy="229.07406"
     inkscape:document-units="mm"
     inkscape:current-layer="g75"
     showgrid="false"
     fit-margin-top="0"
     fit-margin-left="0"
     fit-margin-right="0"
     fit-margin-bottom="0"
     inkscape:window-width="1869"
     inkscape:window-height="1136"
     inkscape:window-x="51"
     inkscape:window-y="27"
     inkscape:window-maximized="1" />
  <metadata
     id="metadata1548">
    <rdf:RDF>
      <cc:Work
         rdf:about="">
        <dc:format>image/svg+xml</dc:format>
        <dc:type
           rdf:resource="http://purl.org/dc/dcmitype/StillImage" />
        <dc:title></dc:title>
      </cc:Work>
    </rdf:RDF>
  </metadata>
  <g
     inkscape:label="Layer 1"
     inkscape:groupmode="layer"
     id="layer1"
     transform="translate(210.68016,5.6719982)">
    <g
       id="g109"
       transform="matrix(0.26458333,0,0,0.26458333,-299.02454,-260.06887)">
      <g
         id="g65">
        <g
           id="g61">
          <circle
             class="st7"
             cx="1127.8"
             cy="1045.4"
             r="76.800003"
             id="circle53"
             style="fill:#eff1f4;fill-opacity:1" />
          <g
             id="g59">
            <path
               class="st9"
               d="M 1162.6,1087.1 H 1093 c -2.5,0 -4.6,-2.1 -4.6,-4.6 v -5.3 c 0,-20.9 16.9,-37.9 37.9,-37.9 h 3.1 c 20.9,0 37.9,16.9 37.9,37.9 v 5.3 c -0.1,2.6 -2.1,4.6 -4.7,4.6 z"
               id="path55"
               inkscape:connector-curvature="0"
               style="fill:#c2cadf;fill-opacity:1" />
            <circle
               class="st10"
               cx="1127.8"
               cy="1030.6"
               r="26.9"
               id="circle57"
               style="fill:#c2cadf;stroke:#eff1f4;stroke-width:7;stroke-miterlimit:10;fill-opacity:1;stroke-opacity:1" />
          </g>
        </g>
        <path
           class="st9"
           d="m 424.1,1239.6 h 506 c 46.5,0 84.2,-37.7 84.2,-84.2 V 961.5 H 424.1 c -46.5,0 -84.2,37.7 -84.2,84.2 v 109.7 c 0.1,46.5 37.7,84.2 84.2,84.2 z"
           id="path63"
           inkscape:connector-curvature="0"
           style="fill:#c2cadf;fill-opacity:1" />
      </g>
      <g
         id="g79">
        <g
           id="g75">
          <circle
             class="st7"
             cx="410.70001"
             cy="1348.4"
             r="76.800003"
             id="circle67"
             style="fill:#eff1f4;fill-opacity:1" />
          <g
             id="g73">
            <path
               class="st11"
               d="m 375.8,1390.1 h 69.7 c 2.5,0 4.6,-2.1 4.6,-4.6 v -5.3 c 0,-20.9 -16.9,-37.9 -37.9,-37.9 h -3.1 c -20.9,0 -37.9,16.9 -37.9,37.9 v 5.3 c 0.1,2.5 2.1,4.6 4.6,4.6 z"
               id="path69"
               inkscape:connector-curvature="0"
               style="fill:#3c5baa;fill-opacity:1" />
            <circle
               class="st12"
               cx="410.70001"
               cy="1333.5"
               r="26.9"
               id="circle71"
               style="fill:#3c5baa;stroke:#eff1f4;stroke-width:7;stroke-miterlimit:10;stroke-opacity:1;fill-opacity:1" />
          </g>
        </g>
        <path
           class="st11"
           d="m 1114.3,1511.6 h -506 c -46.5,0 -84.2,-37.7 -84.2,-84.2 v -158.9 h 590.1 c 46.5,0 84.2,37.7 84.2,84.2 v 74.8 c 0.1,46.5 -37.6,84.1 -84.1,84.1 z"
           id="path77"
           inkscape:connector-curvature="0"
           style="fill:#3c5baa;fill-opacity:1" />
      </g>
      <g
         id="g93">
        <g
           id="g89">
          <circle
             class="st7"
             cx="1137.9"
             cy="1622.7"
             r="76.800003"
             id="circle81"
             style="fill:#eff1f4;fill-opacity:1" />
          <g
             id="g87">
            <path
               class="st9"
               d="m 1172.8,1664.5 h -69.7 c -2.5,0 -4.6,-2.1 -4.6,-4.6 v -5.3 c 0,-20.9 16.9,-37.9 37.9,-37.9 h 3.1 c 20.9,0 37.9,16.9 37.9,37.9 v 5.3 c -0.1,2.5 -2.1,4.6 -4.6,4.6 z"
               id="path83"
               inkscape:connector-curvature="0"
               style="fill:#c2cadf;fill-opacity:1" />
            <circle
               class="st10"
               cx="1137.9"
               cy="1607.9"
               r="26.9"
               id="circle85"
               style="fill:#c2cadf;stroke:#eff1f4;stroke-width:7;stroke-miterlimit:10;fill-opacity:1;stroke-opacity:1" />
          </g>
        </g>
        <path
           class="st9"
           d="m 728.4,1705.4 h 217.9 c 43.1,0 78,-34.9 78,-78 v -84.5 h -296 c -43.1,0 -78,34.9 -78,78 v 6.4 c 0.1,43.2 35,78.1 78.1,78.1 z"
           id="path91"
           inkscape:connector-curvature="0"
           style="fill:#c2cadf;fill-opacity:1" />
      </g>
    </g>
  </g>
</svg>
