<?xml version="1.0" encoding="UTF-8" standalone="no"?>
<svg
   xmlns:dc="http://purl.org/dc/elements/1.1/"
   xmlns:cc="http://creativecommons.org/ns#"
   xmlns:rdf="http://www.w3.org/1999/02/22-rdf-syntax-ns#"
   xmlns:svg="http://www.w3.org/2000/svg"
   xmlns="http://www.w3.org/2000/svg"
   xmlns:sodipodi="http://sodipodi.sourceforge.net/DTD/sodipodi-0.dtd"
   xmlns:inkscape="http://www.inkscape.org/namespaces/inkscape"
   width="256"
   height="256"
   viewBox="0 0 256 256"
   version="1.1"
   id="svg4"
   sodipodi:docname="clock.svg"
   style="fill:none"
   inkscape:version="0.92.3 (2405546, 2018-03-11)">
  <metadata
     id="metadata10">
    <rdf:RDF>
      <cc:Work
         rdf:about="">
        <dc:format>image/svg+xml</dc:format>
        <dc:type
           rdf:resource="http://purl.org/dc/dcmitype/StillImage" />
        <dc:title></dc:title>
      </cc:Work>
    </rdf:RDF>
  </metadata>
  <defs
     id="defs8" />
  <sodipodi:namedview
     pagecolor="#ffffff"
     bordercolor="#666666"
     borderopacity="1"
     objecttolerance="10"
     gridtolerance="10"
     guidetolerance="10"
     inkscape:pageopacity="0"
     inkscape:pageshadow="2"
     inkscape:window-width="1869"
     inkscape:window-height="1136"
     id="namedview6"
     showgrid="false"
     inkscape:zoom="1.430303"
     inkscape:cx="82.5"
     inkscape:cy="82.5"
     inkscape:window-x="51"
     inkscape:window-y="27"
     inkscape:window-maximized="1"
     inkscape:current-layer="svg4" />
  <path
     d="m 39.457597,63.888358 c 2.049569,0.618026 6.766577,-5.941151 20.913734,-13.12624 14.147313,-7.177047 30.343884,-6.156284 33.214858,-6.156284 2.870974,0 4.920387,-4.513629 3.692378,-9.64915 C 96.042362,29.832917 91.337262,21.623198 82.924009,16.084847 74.510601,10.546527 63.864352,10.143805 52.579971,12.599977 41.307808,15.060125 29.214085,26.754853 28.799439,41.527614 28.384638,56.308419 37.874641,63.425767 39.457597,63.896246 Z M 37.204804,34.968593 c 4.098982,-10.873292 13.939757,-16.826352 23.983911,-17.02571 10.048176,-0.207245 19.0677,3.277578 22.141898,7.587827 3.074353,4.31025 7.177357,11.483276 4.505741,12.512081 -2.663573,1.024784 -5.741792,1.236051 -5.741792,1.236051 0,0 2.05359,-2.260835 0.618026,-3.907512 -1.43541,-1.634767 -6.766577,-13.333485 -8.201987,-12.719481 -1.435409,0.618026 -3.692378,2.464215 -2.460193,3.696245 1.228163,1.236051 7.78734,11.901943 7.177202,12.520123 -0.609984,0.618026 -9.848818,2.870819 -11.076827,3.277423 -1.236205,0.41078 -3.692378,0.821405 -3.692378,0.821405 0,0 -3.895603,-7.795073 -5.741792,-7.795073 -1.84619,0 -4.098983,2.460039 -3.281599,3.078065 0.817384,0.614159 3.895603,6.567064 3.895603,6.567064 0,0 -17.225377,6.977844 -19.270924,10.873292 -0.75753,1.459382 -6.961914,-9.848508 -2.862931,-20.725821 z m 35.264271,2.671461 c 1.024785,-1.236052 -4.956268,-10.355023 -6.152572,-10.055909 -1.634767,0.410626 -3.480957,2.053435 -3.480957,2.870819 0,0.821405 4.717008,8.205853 5.534547,9.234504 0.821405,1.020763 3.078219,-0.825272 4.10687,-2.053435 z M 21.215323,49.733467 c 1.020764,-2.256814 0.817539,-2.460194 1.435565,-7.384448 0.618025,-4.924253 4.306382,-12.519968 5.53037,-15.5903 1.224143,-3.070177 -4.386033,-3.484823 -5.127633,-2.671461 -8.401468,9.234659 -9.011529,22.97877 -7.990765,25.23945 1.02483,2.256815 5.127834,2.671461 6.152463,0.406759 z m 76.059223,-37.74754 c 1.43541,0.199373 7.376564,-2.4601478 14.761164,-3.8995475 7.37671,-1.4354249 24.19147,-1.0247379 49.41189,7.5917705 25.21904,8.616509 40.18095,32.001882 41.2048,33.026666 1.02541,1.02463 3.48607,-1.64281 4.1078,-3.281598 0.60937,-1.64281 -2.46529,-8.413099 -11.69083,-16.004947 -9.22398,-7.587827 -26.0341,-25.0281055 -55.5606,-27.8989383 -29.52248,-2.8708359 -44.68653,3.7599947 -45.922581,5.7416825 -1.024784,1.6467384 2.252793,4.5175728 3.688357,4.7249118 z M 253.14925,83.693172 c -6.15242,-16.619105 -27.0626,-21.543359 -40.90322,-17.23311 -13.84371,4.306228 -21.1731,19.226692 -20.91791,21.387771 0.30778,2.611607 8.61308,19.386147 11.37996,29.693227 2.76844,10.3111 3.23087,13.84789 11.6831,17.38452 8.46151,3.5487 16.45594,-2.45617 26.30166,-10.30708 9.83645,-7.84704 18.60418,-24.3104 12.45177,-40.929349 z m -8.61308,25.849438 c -0.91714,-0.61401 -5.99776,-18.620579 -7.22886,-18.461124 -1.23574,0.151568 -2.76688,2.153192 -2.46066,3.070177 0.30778,0.92905 7.22886,18.469157 6.91799,19.856627 -0.31086,1.38762 -2.15288,3.53679 -2.76688,3.07033 -0.61401,-0.45857 -7.0742,-20.773765 -8.61308,-20.773765 -1.53888,0 -3.07002,1.850056 -3.07002,1.850056 0,0 8.61307,22.157359 7.68356,22.926799 -0.92951,0.7696 -4.30576,3.84782 -5.07597,3.07822 -0.76867,-0.76959 -5.38221,-22.77523 -6.91799,-22.77523 -1.53579,0 -3.84333,1.69446 -3.84333,2.77106 0,1.0766 7.68665,21.23234 6.61021,22.15334 -1.07644,0.92503 -4.6089,2.77122 -4.91667,1.84604 -0.30623,-0.92503 -5.07598,-24.16286 -6.91799,-24.77686 -1.84511,-0.61401 -3.69176,0.46259 -3.69176,1.69462 0,1.23605 6.29934,23.23783 4.61354,23.23783 -1.69045,0 -2.30445,-2.92263 -3.69176,-5.54228 -1.38422,-2.61176 -13.22662,-34.769049 -13.22662,-34.769049 0.1593,-1.850211 7.37579,-12.930749 15.98886,-15.853379 8.61308,-2.922785 22.14592,-3.078219 29.06855,6.618875 6.92109,9.69694 3.99954,10.925104 3.99954,10.925104 0,0 -2.15443,-3.389243 -3.5371,-3.082241 -1.38422,0.303136 -2.46066,1.6906 -2.30445,2.153192 0.1593,0.45857 7.22886,9.38205 6.61021,11.842248 -0.61709,2.46003 -2.29981,9.54939 -3.22932,8.93136 z m -3.22932,38.77631 c -0.91714,0 -9.37092,2.31249 -14.91397,2.31249 -5.54151,0 -9.68797,-2.79101 -10.30197,-2.31249 -5.53532,4.30623 0.1593,5.07969 6.29934,6.15628 6.15706,1.07706 12.15327,-1.69864 15.84193,-2.77508 3.69176,-1.07659 3.99954,-3.38924 3.07776,-3.38924 z m -52.27545,43.54931 c 0,0 -1.23574,3.69176 -6.00085,12.0017 -4.7682,8.30839 -12.30019,10.61748 -13.53284,12.92657 -1.23265,2.30909 0.91714,3.22933 3.38089,3.84333 2.46066,0.61401 4.30731,-1.69508 9.99729,-9.23481 5.68998,-7.53509 11.22376,-16.46677 11.22376,-18.15721 0,-1.69045 -3.84333,-1.53579 -5.07134,-1.38422 z M 11.266889,171.25346 C 11.88094,170.32394 7.8855959,160.3282 6.9605216,152.93617 6.0434278,145.55172 8.0371173,136.93123 8.344135,135.55165 8.6511682,134.16403 5.0027289,132.32186 4.6518339,132.625 c -1.2360823,1.07644 -5.07592544,8.61245 -4.61339092,17.54398 0.45854796,8.91884 3.99534982,20.15496 5.38295342,22.76719 1.3876037,2.61222 5.2234616,-0.76867 5.8415026,-1.69045 z M 170.11171,80.766366 C 153.19736,63.991981 117.36688,54.298907 90.456158,55.993529 63.541265,57.68815 44.892387,72.779978 34.481377,85.232205 22.638824,99.386941 15.720834,116.00605 14.644192,140.62747 c -1.076596,24.62204 11.994013,44.62591 12.456604,46.46792 0.462437,1.84975 -17.6840555,23.08626 -18.6051395,25.70158 -0.9170938,2.61532 1.6906465,6.77106 2.7672425,8.15373 1.07658,1.38422 2.615721,0.61864 9.52989,-2.61068 6.922011,-3.23087 23.37795,-12.62034 23.37795,-12.62034 0,0 4.457796,5.23063 28.90832,16.30746 24.450678,11.08456 42.134621,4.77284 43.518221,4.77284 1.3836,0 6.30801,9.84882 12.61215,20.31164 6.29996,10.46591 7.37656,10.00812 11.22437,7.08193 3.84379,-2.92309 1.53919,-4.92441 1.3836,-9.23481 -0.15946,-4.30731 0.15961,-23.23474 0.15961,-23.23474 0,0 2.76317,0 15.52673,-6.15551 12.75954,-6.16015 18.29332,-14.31388 27.05796,-29.0871 8.76464,-14.77323 12.91884,-29.38715 10.91752,-48.16657 -1.99358,-18.7641 -8.45222,-40.769893 -25.36751,-57.544433 z m 11.37997,70.479204 c -2.15289,14.76952 -3.22933,25.84944 -18.14175,38.46514 -14.9135,12.6157 -31.8359,20.77407 -53.36364,21.0803 C 88.458401,211.09879 73.390082,204.79016 59.705516,196.788 46.020794,188.78584 36.634568,169.85841 33.867373,155.8554 31.104043,141.86352 24.644469,96.304855 66.472092,75.228108 c 11.503536,-5.797471 29.06793,-9.386071 54.280008,-5.382824 25.21223,4.003247 38.5983,14.920463 49.97826,30.769816 11.37996,15.84936 12.91884,35.86158 10.76596,50.63836 z M 123.51543,80.156383 c -0.45857,0.91714 -2.91877,9.689052 -2.45618,11.383674 0.46244,1.694621 10.14778,2.001623 11.37997,2.001623 1.23203,0 2.61562,-9.386071 2.46019,-11.694697 -0.15157,-2.312647 -10.47086,-3.508796 -11.3761,-1.694621 z m 37.21764,84.929187 c 0.614,1.53888 9.53021,3.38863 10.60665,3.22933 1.07644,-0.1593 3.84797,-9.54105 4.46662,-11.53927 0.61709,-1.99744 -9.29049,-6.16401 -9.68952,-5.69353 -1.69509,2.00162 -6.00085,12.4646 -5.38375,14.00347 z m -80.265388,20.16007 c -0.77346,0.76867 -2.926651,11.3877 -2.464215,12.92658 0.462591,1.53887 11.379962,5.07907 13.226151,4.7682 1.842168,-0.30623 6.148551,-12.30793 4.764953,-16.92611 -1.383598,-4.61663 -14.753274,-1.55434 -15.534777,-0.76557 z M 45.709771,109.84559 c -1.993581,1.84216 -4.76882,13.22986 -2.460194,14.92046 2.30476,1.69462 11.53153,2.92263 13.226151,2.92263 1.694622,0 3.999381,-12.92673 3.843792,-14.92433 -0.159456,-1.99374 -13.477321,-3.96334 -14.609749,-2.92263 z m 49.204183,-8.6205 c 0,0 2.464215,24.92842 2.771217,26.46761 0.307003,1.53903 3.536789,1.3836 5.841549,0.307 2.3046,-1.07659 0.307,-2.15319 0.15946,-6.29996 -0.14755,-4.14662 -2.46422,-20.93307 -2.46422,-20.93307 0,0 3.99938,-0.15961 5.53455,-0.92518 1.53516,-0.765418 -3.07033,-8.153887 -5.22353,-11.539108 -2.153187,-3.389243 -4.154811,-3.692224 -6.308002,-2.615628 -2.153192,1.076595 -4.45393,14.003323 -4.45393,15.079916 0,1.07644 4.146928,0.46244 4.146928,0.46244 z m 28.449906,-3.536637 c -2.46019,0.302981 -9.99637,6.610837 -11.53153,8.305457 -1.53501,1.69462 2.30476,3.84781 2.76735,4.15481 0.46244,0.307 -4.92039,12.42037 -4.92039,13.54073 0,1.38762 2.61563,3.38925 5.22337,3.22964 2.61965,-0.15142 4.92441,-14.15474 5.23141,-14.92031 0.307,-0.76557 3.22979,0.614 4.92039,0.76959 1.69075,0.15946 1.07659,-7.07342 1.07659,-9.84866 0,-2.7672 -0.307,-5.542281 -2.76719,-5.223369 z M 98.761767,130.61131 c -5.996983,0.92503 -12.149555,6.61888 -11.531529,11.6947 0.61818,5.07582 1.993735,12.46429 11.224527,14.00409 9.230795,1.53888 11.535555,-0.30777 15.379345,-4.307 3.84379,-4.00325 3.84379,-10.15953 0,-15.85338 -3.84379,-5.68982 -8.54101,-6.53922 -15.072343,-5.54228 z m 4.457953,20.6222 c -7.68774,1.07659 -9.529908,-4.92828 -10.147934,-7.85493 -0.618025,-2.92665 2.926806,-8.15002 8.772224,-8.91946 3.65649,-0.47852 9.22275,3.84766 8.76031,8.00248 -0.46259,4.15466 0.31102,7.69547 -7.37671,8.77191 z"
     id="path2"
     inkscape:connector-curvature="0"
     style="fill:#c2cadf;stroke-width:1.54661071" />
</svg>
