<?xml version="1.0" encoding="UTF-8" standalone="no"?>
<svg
   xmlns:dc="http://purl.org/dc/elements/1.1/"
   xmlns:cc="http://creativecommons.org/ns#"
   xmlns:rdf="http://www.w3.org/1999/02/22-rdf-syntax-ns#"
   xmlns:svg="http://www.w3.org/2000/svg"
   xmlns="http://www.w3.org/2000/svg"
   xmlns:sodipodi="http://sodipodi.sourceforge.net/DTD/sodipodi-0.dtd"
   xmlns:inkscape="http://www.inkscape.org/namespaces/inkscape"
   width="256"
   height="256"
   viewBox="0 0 256 256"
   version="1.1"
   id="svg4"
   sodipodi:docname="form.svg"
   style="fill:none"
   inkscape:version="0.92.3 (2405546, 2018-03-11)">
  <metadata
     id="metadata10">
    <rdf:RDF>
      <cc:Work
         rdf:about="">
        <dc:format>image/svg+xml</dc:format>
        <dc:type
           rdf:resource="http://purl.org/dc/dcmitype/StillImage" />
        <dc:title></dc:title>
      </cc:Work>
    </rdf:RDF>
  </metadata>
  <defs
     id="defs8" />
  <sodipodi:namedview
     pagecolor="#ffffff"
     bordercolor="#666666"
     borderopacity="1"
     objecttolerance="10"
     gridtolerance="10"
     guidetolerance="10"
     inkscape:pageopacity="0"
     inkscape:pageshadow="2"
     inkscape:window-width="1869"
     inkscape:window-height="1136"
     id="namedview6"
     showgrid="false"
     inkscape:zoom="2.1651376"
     inkscape:cx="60"
     inkscape:cy="54.5"
     inkscape:window-x="51"
     inkscape:window-y="27"
     inkscape:window-maximized="1"
     inkscape:current-layer="svg4" />
  <path
     d="m 251.68918,68.94489 c 3.73757,-5.047311 5.23046,-10.542066 3.13913,-13.960183 -2.0892,-3.414069 -29.89627,-26.873911 -36.32574,-29.996557 -6.42925,-3.122668 -14.95069,-1.485464 -18.68825,1.928691 -3.73757,3.414155 -30.64741,44.104475 -30.64741,44.104475 0,0 -2.39588,-4.152851 -5.2311,-17.370206 -2.83523,-13.217355 -8.22584,-38.014947 -9.71938,-40.099381 -1.49353,-2.076447 -9.1203,-1.477478 -14.95048,-0.147799 -5.82996,1.337708 -43.205839,9.208235 -72.064537,16.332037 C 38.342929,36.859704 3.9577871,45.936134 3.2150443,46.523283 2.4723228,47.110262 0.22017819,69.983103 0.22017819,70.725718 c 0,2.228271 19.28697081,62.964252 29.30188081,93.851242 10.014761,30.88721 22.872841,71.13516 26.913885,76.6297 4.041044,5.49454 14.646788,1.92735 45.893266,-7.42828 31.25053,-9.3518 69.97236,-19.59827 86.12056,-25.53599 16.14842,-5.93794 13.75659,-13.80855 12.70624,-19.0075 -1.05014,-5.19915 -9.72321,-33.86214 -9.72321,-33.86214 0,0 1.19793,-4.30065 8.52143,-14.39932 7.32734,-10.10271 48.00164,-66.981228 51.73495,-72.02854 z m -65.02833,-6.23737 c 18.98343,-25.540249 22.42157,-30.148338 24.81361,-29.401635 2.39609,0.742701 12.40978,8.018284 16.44337,10.841371 4.03359,2.8233 5.23047,4.604128 4.78324,5.199157 -0.44723,0.599075 -49.93346,61.175337 -55.61584,68.901977 -5.68217,7.71877 -8.67307,13.50891 -9.42378,13.65671 -0.74283,0.14758 -4.3326,-3.56187 -5.52649,-4.15285 -1.1941,-0.5912 -4.33664,-1.78509 -3.88536,-2.52771 0.44723,-0.74282 46.79986,-61.626606 54.57059,-71.425844 7.77159,-9.799026 9.12393,-9.950872 8.52549,-10.989084 -0.59844,-1.038213 -3.43515,-4.009099 -4.93657,-2.970886 -1.49716,1.038212 -48.59603,62.517024 -53.67529,70.239624 -5.07925,7.72281 -10.61383,13.6567 -11.51234,13.6567 -0.89829,0 -13.90417,-0.88658 -12.55843,-1.92479 0,-0.009 29.00628,-33.562487 47.9978,-59.10274 z m -8.82492,96.8183 c -0.44723,0.74261 -16.4438,8.90478 -17.3423,7.7226 -0.8983,-1.18197 -1.9446,-4.15285 -6.1294,-6.23716 -4.1848,-2.07642 -13.30531,-6.23737 -15.25395,-6.82835 -1.94056,-0.59908 -4.63203,0.14375 -4.63203,-0.29943 0,-0.44723 -0.29943,-23.46383 0.1478,-24.64984 0.8146,-2.17226 17.33826,-3.41428 28.40337,6.97999 11.06107,10.39427 15.25779,22.56936 14.80651,23.31219 z m -75.65047,52.86942 C 92.162819,215.21428 70.340117,223.23269 68.842748,221.4476 67.345166,219.66273 52.251148,176.75227 42.68745,143.78076 33.123753,110.80925 17.558482,55.280305 17.710221,53.65111 17.81006,52.612897 68.694949,39.846605 87.830224,34.643615 106.96529,29.440518 145.09209,21.282486 145.69095,21.729716 c 0.59907,0.44723 16.45189,58.36015 16.15246,58.803334 -0.29943,0.443184 -29.45351,36.97656 -32.29279,39.94361 -2.83501,2.97089 -0.29943,6.38901 -0.29943,6.38901 0,0 1.49354,0.88658 0.74666,8.60918 -0.74666,7.72281 -4.03295,41.4331 -1.49332,45.00306 2.53963,3.55378 4.1848,4.45229 10.02286,2.22423 5.82996,-2.22827 42.90236,-19.60657 43.80491,-19.1553 0.89446,0.44723 9.11647,29.54935 8.96462,30.43977 -0.15163,0.89062 -79.09244,15.59342 -89.10741,18.41651 z m 88.95579,-75.1434 c 0,-2.52366 -2.24425,-11.73191 -3.59382,-12.32694 -1.34978,-0.59482 -3.13466,2.38012 -3.13466,3.71371 0,1.34169 3.59382,10.6937 3.29034,12.33099 -0.2956,1.63708 -1.19794,3.26627 -1.19794,3.26627 0,0 -3.88132,-13.95997 -4.48039,-13.95997 -0.59886,0 -3.29034,2.22806 -3.13849,4.15285 0.14758,1.93268 4.63202,13.51679 4.63202,13.51679 0,0 -1.34169,3.41407 -1.94076,2.07643 -0.59886,-1.3336 -6.87627,-12.76608 -9.71938,-14.39932 -0.81843,-0.47918 37.67552,-50.493565 49.78779,-65.344162 12.10929,-14.85443 14.80119,-16.930856 15.69139,-17.078655 0.90298,-0.151845 7.92662,5.79014 7.0279,8.465428 -0.89446,2.667409 -44.24341,63.850619 -48.28445,68.898149 -4.04105,5.05136 -4.93551,9.20825 -4.93551,6.68438 z M 124.45539,51.418792 c 1.19794,-0.598862 1.05014,-3.713501 -0.43913,-4.751714 -1.49758,-1.038213 -13.16156,2.523656 -45.30655,10.246469 -32.144987,7.7226 -39.372439,13.345135 -39.468274,13.804292 -0.447231,2.076425 1.046092,4.456329 2.539628,4.456329 1.493323,0 17.789538,-8.31763 37.22829,-13.51274 19.43854,-5.195111 44.260026,-9.655486 45.454136,-10.250516 z m 14.05602,28.215751 c 1.94865,-0.598862 0.30348,-4.903559 -0.74283,-5.350789 -1.04609,-0.44723 -19.13527,4.009099 -38.422179,9.950871 -19.286908,5.941768 -47.658337,14.511128 -48.289358,16.184405 -0.439137,1.18984 -0.295384,4.15285 1.797014,4.45633 2.092398,0.30348 13.756374,-4.60008 37.375876,-12.171257 23.619717,-7.570972 46.344757,-12.474531 48.289357,-13.06956 z m -24.96524,44.395897 c -1.94481,-0.74262 -9.26426,0.44723 -18.240813,1.48544 -8.976549,1.03822 -35.339489,5.02346 -36.481629,7.27559 -1.046093,2.07642 -0.147586,4.75192 2.092398,4.75192 2.244243,0 3.594027,-0.2956 19.586551,-4.60413 15.992525,-4.30853 31.098683,-6.389 33.342923,-6.389 2.24425,0 1.64517,-1.77699 -0.29943,-2.51982 z M 109.66081,153.58 c 3.13849,-0.73878 1.9446,-1.62919 2.0924,-2.37202 0.15163,-0.74283 -3.73374,-1.33765 -17.937343,1.78104 -14.203604,3.11847 -23.320071,6.82814 -25.116872,9.05641 -1.197937,1.48544 -0.299644,3.8613 0.898294,4.15285 1.197938,0.29943 1.493536,-0.43914 14.654881,-5.93773 13.161557,-5.49858 22.26993,-5.93389 25.41268,-6.66862 z m -14.203821,27.03357 c -9.719163,2.07643 -18.743842,6.02973 -19.286907,6.67651 -0.746662,0.89063 0,3.56592 0.898506,3.86151 0.898507,0.29539 8.225841,-1.92862 14.055806,-4.0091 5.830177,-2.07642 24.813606,-7.57501 24.066946,-8.16599 -0.74687,-0.59908 -10.02285,-0.44723 -19.734351,1.63707 z"
     id="path2"
     inkscape:connector-curvature="0"
     style="fill:#49586f;stroke-width:2.12966752" />
</svg>
