<?xml version="1.0" encoding="UTF-8" standalone="no"?>
<!-- Generator: Adobe Illustrator 16.0.0, SVG Export Plug-In . SVG Version: 6.00 Build 0)  -->

<svg
   xmlns:dc="http://purl.org/dc/elements/1.1/"
   xmlns:cc="http://creativecommons.org/ns#"
   xmlns:rdf="http://www.w3.org/1999/02/22-rdf-syntax-ns#"
   xmlns:svg="http://www.w3.org/2000/svg"
   xmlns="http://www.w3.org/2000/svg"
   xmlns:sodipodi="http://sodipodi.sourceforge.net/DTD/sodipodi-0.dtd"
   xmlns:inkscape="http://www.inkscape.org/namespaces/inkscape"
   version="1.1"
   id="Layer_1"
   x="0px"
   y="0px"
   width="640"
   height="360"
   viewBox="0 0 640 360"
   enable-background="new 0 0 1400 980"
   xml:space="preserve"
   sodipodi:docname="people.svg"
   inkscape:version="0.92.3 (2405546, 2018-03-11)"><metadata
   id="metadata651"><rdf:RDF><cc:Work
       rdf:about=""><dc:format>image/svg+xml</dc:format><dc:type
         rdf:resource="http://purl.org/dc/dcmitype/StillImage" /><dc:title></dc:title></cc:Work></rdf:RDF></metadata><defs
   id="defs649" /><sodipodi:namedview
   pagecolor="#ffffff"
   bordercolor="#666666"
   borderopacity="1"
   objecttolerance="10"
   gridtolerance="10"
   guidetolerance="10"
   inkscape:pageopacity="0"
   inkscape:pageshadow="2"
   inkscape:window-width="1869"
   inkscape:window-height="1136"
   id="namedview647"
   showgrid="false"
   inkscape:zoom="0.96326532"
   inkscape:cx="111.60746"
   inkscape:cy="288.35505"
   inkscape:window-x="51"
   inkscape:window-y="27"
   inkscape:window-maximized="1"
   inkscape:current-layer="Layer_1"
   fit-margin-top="0"
   fit-margin-left="0"
   fit-margin-right="0"
   fit-margin-bottom="0" />






<g
   id="g975"
   transform="matrix(0.92814257,0,0,0.92814257,2.154275,-13.425982)"><g
     transform="translate(-182.99645,-48.808069)"
     id="g174">
	<g
   id="g164">
		<g
   id="g148">
			<path
   style="fill:#778692"
   inkscape:connector-curvature="0"
   id="path86"
   d="m 762.037,164.817 c -2.421,19.373 -19.373,43.59 -36.325,52.066 6.056,-10.897 9.687,-21.795 13.32,-33.903 -24.217,31.482 -75.073,29.06 -111.397,44.801 -50.855,21.795 -13.32,48.434 -18.163,85.969 -49.645,-35.114 -42.379,-171.938 -4.843,-208.263 29.06,-30.271 140.495,-33.577 179.203,-2.421 49.643,39.958 33.903,161.041 -7.265,197.365 -1.211,-23.005 8.476,-48.433 2.422,-70.228 -3.633,-13.319 -12.109,-23.005 -14.529,-36.325 -1.212,-9.688 0,-20.585 -2.423,-29.061" />
			<g
   id="g90">
				<path
   inkscape:connector-curvature="0"
   id="path88"
   d="m 703.211,326.64 c 26.405,0.021 60.691,-2.867 74.829,-28.92 6.87,-12.659 7.453,-27.825 7.493,-41.879 0.049,-16.769 -4.17,-35.556 0.956,-51.877 0.581,-1.851 -2.315,-2.637 -2.893,-0.798 -4.364,13.895 -1.75,29.482 -1.23,43.74 0.545,14.986 0.609,30.811 -4.912,44.992 -11.205,28.775 -47.815,31.763 -74.243,31.743 -1.935,-0.003 -1.935,2.997 0,2.999 z" />
			</g>
			<g
   id="g94">
				<path
   inkscape:connector-curvature="0"
   id="path92"
   d="m 592.231,215.672 c 1.746,24.291 0.051,51.726 12.051,73.795 14.251,26.21 48.775,33.319 75.89,36.128 1.924,0.199 1.904,-2.803 0,-3 -26.813,-2.778 -59.771,-9.762 -73.762,-35.492 -5.435,-9.996 -7.377,-21.63 -8.576,-32.808 -1.375,-12.83 -1.678,-25.758 -2.603,-38.624 -0.137,-1.917 -3.138,-1.93 -3,0.001 z" />
			</g>
			<g
   id="g98">
				<path
   inkscape:connector-curvature="0"
   id="path96"
   d="m 579.052,244.882 c -3.055,-3.221 -7.451,-5.951 -11.935,-3.987 -3.429,1.502 -5.454,5.24 -6.135,8.768 -0.713,3.69 -0.083,7.916 2.78,10.574 3.853,3.578 9.744,2.409 14.144,0.681 1.967,-0.772 3.851,-1.736 5.685,-2.782 1.68,-0.958 0.169,-3.55 -1.514,-2.591 -3.94,2.247 -10.021,5.527 -14.706,3.5 -2.938,-1.271 -3.808,-4.482 -3.638,-7.431 0.166,-2.866 1.513,-6.113 4.022,-7.682 3.32,-2.076 6.923,0.698 9.175,3.071 1.334,1.407 3.452,-0.718 2.122,-2.121 z" />
			</g>
			<g
   id="g102">
				<path
   inkscape:connector-curvature="0"
   id="path100"
   d="m 793.369,238.528 c 2.909,-2.386 7.242,-5.087 11.061,-3.145 2.78,1.415 4.082,4.654 4.544,7.566 0.367,2.313 0.128,5.825 -1.901,7.387 -3.124,2.404 -7.721,-1.101 -10.071,-3.033 -1.481,-1.218 -3.617,0.892 -2.121,2.121 3.489,2.869 8.824,6.445 13.389,3.718 3.34,-1.995 4.101,-6.558 3.717,-10.106 -0.437,-4.035 -2.354,-8.223 -6.041,-10.244 -5.074,-2.781 -10.734,0.363 -14.696,3.614 -1.499,1.229 0.637,3.339 2.119,2.122 z" />
			</g>
			<g
   id="g106">
				<path
   inkscape:connector-curvature="0"
   id="path104"
   d="m 683.098,246.754 c -1.278,7.085 -3.764,13.784 -6.054,20.584 -0.329,0.975 0.526,1.843 1.446,1.899 2.475,0.151 4.811,0.96 7.266,1.211 1.924,0.196 1.905,-2.806 0,-3 -2.451,-0.25 -4.789,-1.06 -7.266,-1.211 0.482,0.633 0.964,1.266 1.446,1.899 2.291,-6.801 4.776,-13.5 6.054,-20.584 0.342,-1.891 -2.55,-2.699 -2.892,-0.798 z" />
			</g>
			<g
   id="g110">
				<path
   inkscape:connector-curvature="0"
   id="path108"
   d="m 703.917,297.087 c 11.396,0.943 21.335,-5.041 25.663,-15.631 0.732,-1.792 -2.171,-2.563 -2.893,-0.798 -3.84,9.397 -12.823,14.252 -22.771,13.429 -1.928,-0.16 -1.913,2.842 10e-4,3 z" />
			</g>
			<g
   id="g114">
				<path
   inkscape:connector-curvature="0"
   id="path112"
   d="m 632.189,237.468 c 0.006,1.757 -0.063,5.918 2.312,6.289 0.645,0.101 1.365,-0.046 1.694,-0.689 1.312,-2.562 2.837,-4.875 3.783,-7.623 0.436,-1.267 -1.121,-2.346 -2.203,-1.694 -1.277,0.769 -2.523,1.607 -3.67,2.56 -1.581,1.312 -1.752,3.755 0.795,3.867 -0.5,-0.5 -1,-1 -1.5,-1.5 0.239,2.215 2.31,1.839 3.504,0.655 0.723,-0.716 2.235,-2.136 2.162,-3.271 -0.047,-0.734 -0.65,-1.608 -1.5,-1.5 -0.562,0.071 -0.903,0.246 -1.304,0.633 0.486,-0.129 0.973,-0.257 1.459,-0.386 -1.414,-0.436 -2.715,-0.603 -3.935,0.343 -0.81,0.628 -0.561,1.787 -1.158,2.464 -1.273,1.445 0.84,3.576 2.121,2.121 0.516,-0.585 0.813,-1.218 1.023,-1.967 0.029,-0.102 0.238,-0.611 0.135,-0.497 -0.276,0.305 0.655,0.317 1.016,0.428 0.514,0.159 1.082,-0.021 1.459,-0.386 0.344,-0.307 0.072,-0.225 -0.817,0.246 -0.5,-0.5 -1,-1 -1.5,-1.5 -0.042,-0.649 0.271,-0.774 -0.064,-0.294 -0.155,0.222 -0.326,0.43 -0.498,0.638 -0.229,0.278 -0.471,0.545 -0.721,0.805 -0.087,0.089 -0.177,0.176 -0.27,0.26 -0.042,0.036 -0.083,0.072 -0.125,0.108 0.582,-0.574 1.252,-0.208 2.012,1.098 -0.091,-0.842 -0.615,-1.461 -1.5,-1.5 0.66,0.029 1.196,1.268 0.766,1.789 0.164,-0.198 0.367,-0.367 0.56,-0.535 0.391,-0.34 0.824,-0.631 1.25,-0.924 0.591,-0.407 1.198,-0.796 1.813,-1.166 -0.734,-0.565 -1.469,-1.129 -2.203,-1.694 -0.858,2.493 -2.291,4.582 -3.481,6.906 0.565,-0.229 1.129,-0.459 1.694,-0.689 0.437,0.068 0.359,0.42 0.175,-0.292 -0.104,-0.406 -0.152,-0.822 -0.193,-1.238 -0.062,-0.619 -0.09,-1.245 -0.092,-1.867 -0.005,-1.932 -3.005,-1.933 -2.999,0.002 z" />
			</g>
			<g
   id="g118">
				<path
   inkscape:connector-curvature="0"
   id="path116"
   d="m 726.001,239.889 c -0.026,-0.54 -0.15,-0.876 -0.491,-1.302 -0.352,-0.439 -0.962,-0.462 -1.46,-0.386 -1.684,0.258 -2.13,3.872 -2.253,5.157 -0.178,1.868 1.678,3.343 3.041,1.569 0.72,-0.936 0.954,-2.566 1.266,-3.676 0.208,-0.742 0.408,-1.486 0.616,-2.228 0.07,-0.25 0.144,-0.5 0.219,-0.75 0.179,-0.585 0.042,-0.025 -0.188,0.161 -0.486,0.128 -0.974,0.257 -1.46,0.386 0.004,0.001 0.007,0.002 0.01,0.003 -0.299,-0.23 -0.598,-0.46 -0.896,-0.689 -0.063,-0.222 -0.128,-0.444 -0.191,-0.666 0.5,-0.5 1,-1 1.5,-1.5 -1.697,0.147 -3.214,1.546 -4.298,2.76 -1.146,1.282 -1.414,3.616 0.586,3.872 0,-1 0,-2 0,-3 -2,0.081 -2.094,1.991 -0.76,2.931 0.727,0.511 1.815,0.756 2.653,1.018 0.919,0.287 1.946,0.607 2.919,0.6 1.635,-0.011 2.194,-1.771 1.167,-2.898 -0.354,0.854 -0.704,1.707 -1.058,2.561 2.486,-0.324 2.549,-3.354 2.708,-5.322 -0.146,0.354 -0.293,0.707 -0.439,1.061 10e-4,0 0.003,-10e-4 0.003,-10e-4 -0.854,-0.354 -1.707,-0.707 -2.561,-1.061 0.002,0.063 10e-4,0.127 10e-4,0.191 0.633,-0.482 1.266,-0.964 1.898,-1.446 -1.605,-0.397 -6.325,-1.637 -6.688,1.047 -0.183,1.351 -0.142,4.475 1.92,4.416 0.645,-0.019 1.106,-0.308 1.574,-0.722 0.181,-0.159 0.344,-0.338 0.518,-0.506 0.301,-0.291 0.183,-0.109 -0.145,-0.078 1.909,-0.178 1.927,-3.18 0,-3 -0.858,0.08 -1.475,0.472 -2.086,1.062 -0.104,0.101 -0.688,0.587 -0.379,0.381 2.077,-1.383 1.733,1.394 1.602,0.324 -0.042,-0.342 -0.044,-0.691 -0.054,-1.035 0.008,0.294 -0.889,0.604 -0.476,0.512 -0.203,0.045 0.43,0.009 0.368,0.009 0.403,0.002 0.809,0.051 1.207,0.112 0.617,0.095 1.233,0.221 1.841,0.371 0.942,0.233 1.898,-0.452 1.898,-1.446 0,-0.063 10e-4,-0.127 -0.001,-0.191 -0.033,-1.253 -1.642,-2.058 -2.561,-1.061 -0.499,0.542 -0.445,1.254 -0.509,1.936 -0.031,0.339 -0.087,0.671 -0.154,1.005 -0.04,0.198 -0.097,0.393 -0.154,0.587 -0.157,0.523 -0.354,-0.01 0.669,-0.144 -1.274,0.166 -2.015,1.514 -1.061,2.561 -0.701,-0.77 1.889,-2.168 0.761,-2.228 -0.161,-0.016 -0.156,-0.015 0.015,0.003 -0.102,-0.018 -0.202,-0.037 -0.304,-0.059 -0.484,-0.098 -0.962,-0.235 -1.436,-0.375 -0.483,-0.143 -0.961,-0.304 -1.435,-0.477 -0.055,-0.02 -0.638,-0.257 -0.33,-0.123 -0.493,-0.214 -0.258,-0.357 0.104,0.276 0.051,0.385 0.101,0.771 0.151,1.156 10e-4,-0.007 0.003,-0.014 0.004,-0.02 -0.229,0.299 -0.46,0.598 -0.689,0.896 -0.208,0.059 -0.417,0.119 -0.625,0.178 1.965,-0.094 1.896,-2.802 0,-3 1.076,0.456 1.47,1.019 1.182,1.689 0.029,-0.058 0.14,-0.231 0.177,-0.278 0.289,-0.363 0.626,-0.688 0.964,-1.005 0.258,-0.243 0.53,-0.469 0.819,-0.675 0.188,-0.135 0.947,-0.402 0.491,-0.363 0.793,-0.068 1.528,-0.63 1.5,-1.5 -0.033,-0.995 -0.889,-1.825 -1.922,-1.541 -0.69,0.19 -0.976,0.748 -1.186,1.364 -0.371,1.096 -0.634,2.233 -0.946,3.347 -0.177,0.63 -0.359,1.259 -0.56,1.883 -0.072,0.224 -0.149,0.446 -0.231,0.667 -0.139,0.374 0.128,-0.271 -0.013,0.033 -0.03,0.067 -0.067,0.13 -0.106,0.192 1.907,1.062 2.749,1.154 2.524,0.275 0.105,0.454 0.024,0.108 0.021,-0.02 -0.012,-0.345 0.056,-0.643 0.134,-0.997 0.109,-0.499 0.258,-0.99 0.416,-1.476 -0.036,0.111 0.198,-0.553 0.14,-0.415 0.26,-0.614 0.192,0.187 -0.635,0.313 -0.486,-0.128 -0.973,-0.257 -1.459,-0.386 -0.13,-0.273 -0.259,-0.546 -0.388,-0.819 0.094,1.925 3.095,1.934 3.001,0 z" />
			</g>
			<g
   id="g122">
				<path
   inkscape:connector-curvature="0"
   id="path120"
   d="m 679.411,325.858 c -1.148,15.12 -10.722,41.763 -29.98,39.668 -1.922,-0.209 -1.902,2.793 0,3 21.084,2.293 31.718,-26.037 32.98,-42.668 0.147,-1.931 -2.854,-1.917 -3,0 z" />
			</g>
			<g
   id="g126">
				<path
   inkscape:connector-curvature="0"
   id="path124"
   d="m 709.735,326.257 c 1.564,9.321 3.107,19.247 9.165,26.846 6.979,8.753 19.513,9.691 29.818,9.37 1.93,-0.06 1.936,-3.061 0,-3 -9.912,0.31 -20.793,-0.491 -27.696,-8.491 -5.818,-6.741 -6.979,-17.095 -8.395,-25.522 -0.318,-1.906 -3.209,-1.095 -2.892,0.797 z" />
			</g>
			<path
   style="fill:#778692"
   inkscape:connector-curvature="0"
   id="path128"
   d="M 764.453,109.921 C 780.192,68.753 875.849,79.65 867.373,130.505 833.47,118.397 801.988,129.295 770.507,107.5" />
			<g
   id="g132">
				<path
   inkscape:connector-curvature="0"
   id="path130"
   d="m 763.64,90.716 c -0.651,-0.26 -2.39,-0.375 -2.97,-0.825 -0.102,0.785 -0.202,1.57 -0.304,2.356 16.71,-10.423 40.597,14.939 27.242,30.337 -1.261,1.454 0.852,3.585 2.121,2.121 15.545,-17.922 -11.166,-47.343 -30.877,-35.049 -0.739,0.461 -1.098,1.738 -0.304,2.356 1.389,1.08 2.681,0.954 4.294,1.597 1.8,0.716 2.572,-2.186 0.798,-2.893 z" />
			</g>
			
		</g>
		<path
   inkscape:connector-curvature="0"
   style="fill:#3c5baa;fill-opacity:1"
   id="path150"
   d="m 608.33,399.805 c 17.88,-11.92 13.112,-36.953 36.953,-35.76 2.384,27.416 29.801,27.416 51.257,29.8 16.688,1.192 25.033,1.192 36.953,-10.729 11.921,-9.536 13.112,-27.416 30.993,-23.841 0,0 1.191,34.569 14.304,41.721 13.111,7.152 -35.761,36.954 -90.594,26.225 -54.833,-10.728 -79.866,-27.416 -79.866,-27.416 z" />
		<g
   id="g154">
			<path
   inkscape:connector-curvature="0"
   id="path152"
   d="m 646.041,411.622 c -2.065,-1.311 -3.994,-4.435 -6.878,-2.682 -2.189,1.331 -5.017,3.934 -4.826,6.807 0.302,4.537 7.601,4.017 10.561,3.579 2.672,-0.396 9.766,-1.735 8.905,-5.868 -0.446,-2.141 -2.79,-3.112 -4.585,-3.868 -2.418,-1.018 -4.887,-0.57 -5.506,-3.462 -1.003,-4.682 -1.324,-9.53 -0.556,-14.267 -0.734,0.299 -1.469,0.598 -2.204,0.896 6.249,2.952 6.352,10.555 6.409,16.584 0.01,1.039 1.307,2.001 2.257,1.295 4.832,-3.587 8.727,-3.378 14.34,-2.233 -0.119,-0.914 -0.239,-1.828 -0.358,-2.742 -3.573,2.625 -5.82,5.854 -10.37,7.002 -1.913,0.482 -1.068,3.192 0.798,2.893 4.158,-0.668 10.634,0.235 9.687,5.944 -1.082,6.515 -8.013,1.189 -10.218,-1.299 -0.974,-1.099 -3.021,0.051 -2.507,1.459 0.779,2.136 2.276,5.778 0.615,7.886 -1.895,2.405 -4.741,-6.865 -4.874,-7.492 -0.232,-1.094 -1.764,-1.461 -2.507,-0.662 -2.227,2.397 -4.885,4.208 -8.209,4.563 -5.594,0.599 -2.171,-5.084 -0.398,-7.21 0.744,-0.891 0.375,-2.698 -1.061,-2.561 -3.289,0.315 -12.106,-0.018 -7.188,-5.027 4.451,-4.532 12.187,-3 17.159,-0.522 1.726,0.86 3.246,-1.728 1.514,-2.591 -6.498,-3.238 -17.051,-4.739 -21.92,2.28 -5.144,7.415 5.235,9.358 10.436,8.86 -0.354,-0.854 -0.707,-1.707 -1.061,-2.561 -2.669,3.2 -6.186,8.736 -1.24,11.644 4.659,2.739 11.049,-1.482 14.089,-4.755 -0.835,-0.221 -1.671,-0.441 -2.507,-0.662 0.701,3.296 2.932,10.931 7.849,9.878 5.239,-1.123 3.427,-8.492 2.196,-11.868 -0.835,0.487 -1.671,0.973 -2.507,1.459 4.09,4.615 12.338,8.648 15.104,0.486 2.849,-8.407 -7.148,-11.125 -13.25,-10.145 0.266,0.964 0.532,1.928 0.798,2.893 4.931,-1.243 7.176,-4.431 11.086,-7.304 0.945,-0.695 1.045,-2.456 -0.358,-2.742 -6.478,-1.321 -11.124,-1.568 -16.652,2.535 0.752,0.432 1.504,0.864 2.257,1.295 -0.068,-7.104 -0.622,-15.739 -7.895,-19.175 -0.788,-0.372 -2.037,-0.135 -2.204,0.896 -1.021,6.302 -0.278,12.508 1.191,18.678 0.116,0.486 0.558,0.936 1.047,1.047 0.574,0.131 8.965,2.452 8.282,3.293 -1.272,1.563 -4.261,1.949 -6.099,2.266 -2.124,0.366 -4.953,0.61 -6.939,-0.404 -0.823,-0.42 -0.208,-1.221 0.141,-1.786 2.314,-3.74 4.313,-1.421 6.642,0.057 1.639,1.043 3.142,-1.554 1.514,-2.587 z" />
		</g>
		<g
   id="g158">
			<path
   inkscape:connector-curvature="0"
   id="path156"
   d="m 572.427,396.14 c 12.757,-3.694 23.858,-11.662 36.953,-14.305 1.896,-0.382 1.091,-3.274 -0.798,-2.893 -13.109,2.645 -24.193,10.61 -36.953,14.305 -1.854,0.537 -1.065,3.432 0.798,2.893 z" />
		</g>
		<g
   id="g162">
			<path
   inkscape:connector-curvature="0"
   id="path160"
   d="m 788.887,372.299 c 10.929,-2.108 21.327,9.083 31.388,11.92 1.865,0.526 2.656,-2.368 0.797,-2.893 -10.886,-3.071 -20.939,-14.244 -32.981,-11.92 -1.9,0.366 -1.094,3.258 0.796,2.893 z" />
		</g>
	</g>
	<g
   id="g168">
		<path
   inkscape:connector-curvature="0"
   id="path166"
   d="m 812,107.5 c 16.703,0.166 30.175,6.375 44.243,14.795 1.664,0.996 3.172,-1.599 1.514,-2.591 -14.532,-8.698 -28.529,-15.033 -45.757,-15.205 -1.936,-0.018 -1.934,2.982 0,3.001 z" />
	</g>
	<g
   id="g172">
		<path
   inkscape:connector-curvature="0"
   id="path170"
   d="m 829.602,101.446 c 7.784,2.06 15.062,5.544 21.338,10.614 1.49,1.204 3.627,-0.905 2.121,-2.121 -6.691,-5.406 -14.353,-9.187 -22.662,-11.386 -1.873,-0.495 -2.667,2.399 -0.797,2.893 z" />
	</g>
</g><g
     transform="translate(-757.49447,-663.95359)"
     id="g644">
	<g
   id="g574">
		<path
   style="fill:#3c5baa;fill-opacity:1"
   inkscape:connector-curvature="0"
   id="path510"
   d="m 973.07615,762.43498 c 6.926,38.098 -62.281,53.078 -84.217,75.013 -21.935,21.937 -25.365,47.32 -36.911,73.873 -8.082,19.627 -39.237,54.254 -64.635,36.937 -2.31,-1.155 -4.61,-2.312 -6.919,-3.467 27.708,-49.644 -12.208,-109.321 0.491,-162.429 5.772,-27.708 25.662,-50.945 51.061,-67.107 20.781,-13.854 55.993,-19.878 80.236,-23.343 30.018,-3.463 87.573,6.969 109.50905,31.213 24.244,25.398 12.701,79.659 -13.854,98.132 -5.772,-24.245 5.772,-47.335 -5.772,-72.733 -2.30905,27.708 -10.51705,53.106 -40.53405,61.188 10.392,-12.7 26.42,-39.253 11.42,-54.261 0,2.308 0,5.889 0,5.889" />
		<path
   style="fill:#c2cadf;fill-opacity:1"
   inkscape:connector-curvature="0"
   id="path512"
   d="m 1020.5352,809.71098 c -1.154,40.406 1.154,84.276 10.391,123.53 -31.17105,17.317 -92.35805,31.172 -126.99305,19.626 0,-17.317 31.171,-15.008 42.716,-16.162 21.936,-2.309 49.643,-11.546 58.87905,-33.48 6.927,-13.854 -4.618,-100.441 13.854,-99.287" />
		<path
   style="fill:#c2cadf;fill-opacity:1"
   inkscape:connector-curvature="0"
   id="path514"
   d="m 783.86515,943.63198 c 21.935,8.082 48.489,31.171 63.497,5.772 8.082,-13.854 10.391,-41.562 -8.081,-43.871 -18.472,-3.464 -38.098,25.399 -49.643,35.789" />
		<path
   style="fill:#778692;fill-opacity:1"
   inkscape:connector-curvature="0"
   id="path516"
   d="m 757.54715,1042.028 c -1.459,-24.799 27.718,-32.094 46.682,-39.387 23.342,-8.75402 23.342,-13.13102 35.012,-32.09502 8.753,-14.589 8.753,-20.424 30.635,-16.047 4.377,1.458 18.965,5.835 21.882,10.212 5.836,7.294 0,16.047 2.918,21.882 10.213,13.13 30.636,7.294 45.225,8.753 24.8,1.459 91.90505,30.63502 40.847,46.68202 -32.095,8.754 -81.694,0 -115.247,0 -33.553,0 -74.4,-1.458 -105.035,-4.375" />
		<g
   transform="translate(161.94915,145.33898)"
   id="g544">
			<g
   id="g520">
				<path
   inkscape:connector-curvature="0"
   id="path518"
   d="m 845.311,670.898 c 0.197,24.12 8.839,47.925 3.889,72.051 -3.25,15.843 -14.924,33.267 -29.866,40.556 -9.245,4.509 -20.008,6.043 -30.093,7.335 -6.884,0.882 -13.38,0.864 -20.291,0.47 -5.573,-0.318 -11.164,0.123 -16.348,2.351 -9.93,4.265 -16.123,13.845 -20.903,23.102 -2.271,4.398 -3.825,8.776 -4.903,13.61 -0.56,2.511 -1.779,6.519 -0.48,8.973 0.904,1.711 3.494,0.194 2.59,-1.514 -1.455,-2.751 1.573,-10.137 2.431,-12.903 1.678,-5.414 4.931,-10.675 8.018,-15.387 3.209,-4.897 7.249,-9.236 12.349,-12.167 6.261,-3.599 13.701,-3.304 20.636,-2.859 11.479,0.737 23.241,-1.1 34.428,-3.668 7.19,-1.651 14.299,-4.176 20.373,-8.438 13.289,-9.325 22.717,-26.086 25.538,-41.688 4.219,-23.321 -4.175,-46.54 -4.365,-69.822 -0.019,-1.935 -3.019,-1.937 -3.003,-0.002 z" />
			</g>
			<g
   id="g524">
				<path
   inkscape:connector-curvature="0"
   id="path522"
   d="m 677.675,678.582 c -2.827,14.616 0.789,29.166 0.956,43.836 0.633,-0.482 1.266,-0.964 1.899,-1.446 -8.35,-1.386 -15.924,2.842 -16.122,12.058 -0.061,2.856 2.437,4.666 4.612,5.955 4.54,2.688 7.263,6.417 10.387,10.634 7.919,10.69 8.271,23.936 7.28,36.756 -1.147,14.826 -5.163,29.263 -6.036,44.132 -0.113,1.934 2.887,1.923 3,0 1.361,-23.193 10.527,-46.879 4.524,-70.115 -2,-7.743 -7.464,-14.722 -12.704,-20.59 -2,-2.24 -5.1,-3.057 -7.275,-5.064 -2.201,-2.03 0.534,-6.983 1.845,-8.623 2.23,-2.789 6.539,-2.771 9.69,-2.249 0.938,0.155 1.911,-0.394 1.899,-1.446 -0.164,-14.362 -3.83,-28.734 -1.063,-43.039 0.367,-1.892 -2.525,-2.697 -2.892,-0.799 z" />
			</g>
			<g
   id="g528">
				<path
   inkscape:connector-curvature="0"
   id="path526"
   d="m 818.036,705.245 c -0.327,4.658 0.426,9.272 0.662,13.916 0.109,2.165 0.076,4.453 -0.866,6.448 -1.44,3.046 -5.662,2.65 -8.398,2.38 -1.925,-0.19 -1.906,2.812 0,3 5.362,0.531 10.361,-0.573 11.89,-6.297 1.652,-6.186 -0.731,-13.128 -0.287,-19.447 0.135,-1.932 -2.866,-1.919 -3.001,0 z" />
			</g>
			<path
   inkscape:connector-curvature="0"
   id="path530"
   d="m 788.22,746.663 c -7.071,-1.011 -19.193,-6.062 -28.284,-4.041 -27.275,7.07 -13.132,30.305 6.061,35.355 13.133,4.041 46.468,3.03 56.57,-9.091 15.152,-19.194 -15.154,-23.234 -34.347,-22.223" />
			<g
   id="g534">
				<path
   inkscape:connector-curvature="0"
   id="path532"
   d="m 759.415,701.205 c 1.318,-10.792 16.293,-9.204 18.268,0.398 0.39,1.895 3.281,1.091 2.893,-0.797 -2.723,-13.243 -22.465,-13.482 -24.16,0.398 -0.235,1.919 2.768,1.896 2.999,0.001 z" />
			</g>
			<g
   id="g538">
				<path
   inkscape:connector-curvature="0"
   id="path536"
   d="m 832.093,697.562 c 0.659,-1.824 1.788,-3.667 3.729,-4.292 2.323,-0.748 3.857,1.934 4.643,3.64 0.808,1.756 3.393,0.23 2.59,-1.514 -1.328,-2.889 -3.757,-5.606 -7.23,-5.162 -3.422,0.438 -5.539,3.527 -6.624,6.531 -0.66,1.824 2.239,2.602 2.892,0.797 z" />
			</g>
			<g
   id="g542">
				<path
   inkscape:connector-curvature="0"
   id="path540"
   d="m 675.081,728.969 c 1.414,-0.016 2.975,-0.442 4.372,-0.172 1.898,0.368 2.069,3.693 2.264,5.133 0.482,-0.633 0.964,-1.266 1.446,-1.898 -0.609,-0.078 -1.521,-1.139 -1.97,-1.582 0.146,0.354 0.293,0.707 0.439,1.061 0.078,-0.609 1.138,-1.521 1.581,-1.97 1.361,-1.377 -0.76,-3.499 -2.121,-2.121 -1.016,1.028 -2.85,2.876 -2.406,4.489 0.427,1.552 3.053,2.941 4.477,3.123 1.078,0.138 1.56,-1.055 1.446,-1.898 -0.333,-2.471 -0.908,-5.652 -3.397,-6.88 -1.902,-0.938 -4.116,-0.308 -6.13,-0.284 -1.935,0.021 -1.937,3.021 -10e-4,2.999 z" />
			</g>
		</g>
		<g
   transform="translate(161.94915,145.33898)"
   id="g548">
			<path
   inkscape:connector-curvature="0"
   id="path546"
   d="m 625.172,872.951 c 11.982,13.499 20.368,29.166 28.942,44.919 0.925,1.7 3.516,0.186 2.591,-1.514 -8.7,-15.983 -17.259,-31.836 -29.412,-45.526 -1.286,-1.449 -3.4,0.68 -2.121,2.121 z" />
		</g>
		<g
   transform="translate(161.94915,145.33898)"
   id="g552">
			<path
   inkscape:connector-curvature="0"
   id="path550"
   d="m 667.478,845.232 c 16.929,20.691 56.366,34.988 70.92,4.073 0.819,-1.739 -1.767,-3.264 -2.59,-1.514 -13.731,29.166 -50.525,14.488 -66.209,-4.681 -1.225,-1.497 -3.335,0.639 -2.121,2.122 z" />
		</g>
		<g
   transform="translate(161.94915,145.33898)"
   id="g556">
			<path
   inkscape:connector-curvature="0"
   id="path554"
   d="m 693.297,813.537 c -0.175,7.089 -2.718,14.26 -4.456,21.078 -1.492,5.859 -3.733,12.591 -2.785,18.709 0.295,1.907 3.186,1.095 2.893,-0.797 -0.966,-6.235 1.889,-13.631 3.418,-19.59 1.616,-6.3 3.767,-12.845 3.929,-19.4 0.05,-1.935 -2.951,-1.931 -2.999,0 z" />
		</g>
		<g
   transform="translate(161.94915,145.33898)"
   id="g560">
			<path
   inkscape:connector-curvature="0"
   id="path558"
   d="m 706.427,814.996 c 1.292,14.203 -10.211,26.726 -8.753,40.848 0.196,1.904 3.198,1.924 3,0 -1.45,-14.046 10.048,-26.61 8.753,-40.848 -0.174,-1.91 -3.175,-1.927 -3,0 z" />
		</g>
		<g
   transform="translate(161.94915,145.33898)"
   id="g564">
			<path
   inkscape:connector-curvature="0"
   id="path562"
   d="m 721.069,821.892 c -4.642,11.968 -7.2,25.505 -7.349,38.328 -0.022,1.936 2.978,1.934 3,0 0.146,-12.562 2.69,-25.796 7.241,-37.531 0.701,-1.806 -2.2,-2.582 -2.892,-0.797 z" />
		</g>
		<g
   transform="translate(161.94915,145.33898)"
   id="g568">
			<path
   inkscape:connector-curvature="0"
   id="path566"
   d="m 794.162,859.518 c 8.793,14.992 12.425,33.448 23.575,46.986 1.23,1.495 3.341,-0.641 2.121,-2.121 -10.942,-13.286 -14.468,-31.65 -23.106,-46.379 -0.978,-1.668 -3.571,-0.158 -2.59,1.514 z" />
		</g>
		<g
   transform="translate(161.94915,145.33898)"
   id="g572">
			<path
   style="fill:#fffefd"
   inkscape:connector-curvature="0"
   id="path570"
   d="m 757.131,746.42 c 13.274,3.395 20.691,17.771 25.211,29.589 0.684,1.788 3.585,1.013 2.893,-0.797 -4.903,-12.821 -12.914,-28.005 -27.307,-31.685 -1.875,-0.479 -2.67,2.414 -0.797,2.893 z" />
		</g>
	</g>
	<g
   transform="translate(161.94915,145.33898)"
   id="g578">
		<path
   inkscape:connector-curvature="0"
   id="path576"
   d="m 657.5,767 c -1.212,10.626 -4.626,21.868 -9.795,31.243 -0.935,1.695 1.657,3.208 2.591,1.514 5.453,-9.892 8.928,-21.564 10.205,-32.757 0.218,-1.92 -2.784,-1.899 -3.001,0 z" />
	</g>
	<g
   transform="translate(161.94915,145.33898)"
   id="g582">
		<path
   inkscape:connector-curvature="0"
   id="path580"
   d="m 670.5,775 c -0.343,7.15 -3.715,14.862 -5.946,21.602 -0.61,1.842 2.288,2.625 2.893,0.797 2.329,-7.033 5.696,-14.929 6.054,-22.398 0.092,-1.936 -2.909,-1.927 -3.001,-10e-4 z" />
	</g>
	
	<g
   transform="translate(161.94915,145.33898)"
   id="g634">
		<path
   inkscape:connector-curvature="0"
   id="path632"
   d="m 646.243,564.295 c 6.257,3.247 11.743,7.754 18,11 1.714,0.89 3.231,-1.699 1.514,-2.59 -6.257,-3.247 -11.743,-7.754 -18,-11 -1.715,-0.89 -3.232,1.699 -1.514,2.59 z" />
	</g>
	<g
   transform="translate(161.94915,145.33898)"
   id="g638">
		<path
   inkscape:connector-curvature="0"
   id="path636"
   d="m 664.243,554.295 c 4.323,3.304 8.151,7.437 13,10 1.708,0.903 3.225,-1.686 1.514,-2.59 -4.835,-2.557 -8.683,-6.701 -13,-10 -1.538,-1.176 -3.029,1.433 -1.514,2.59 z" />
	</g>
	<g
   transform="translate(161.94915,145.33898)"
   id="g642">
		<path
   inkscape:connector-curvature="0"
   id="path640"
   d="m 683.939,538.061 c 1.644,2.098 2.289,5.945 3.169,8.425 1.106,3.116 2.162,6.287 3.596,9.271 0.838,1.743 3.424,0.221 2.591,-1.514 -1.686,-3.508 -2.844,-7.294 -4.146,-10.954 -0.843,-2.371 -1.509,-5.334 -3.089,-7.35 -1.192,-1.521 -3.299,0.618 -2.121,2.122 z" />
	</g>
</g></g>
</svg>