<?xml version="1.0" encoding="UTF-8" standalone="no"?>
<!-- Generator: Adobe Illustrator 16.0.0, SVG Export Plug-In . SVG Version: 6.00 Build 0)  -->

<svg
   xmlns:dc="http://purl.org/dc/elements/1.1/"
   xmlns:cc="http://creativecommons.org/ns#"
   xmlns:rdf="http://www.w3.org/1999/02/22-rdf-syntax-ns#"
   xmlns:svg="http://www.w3.org/2000/svg"
   xmlns="http://www.w3.org/2000/svg"
   xmlns:sodipodi="http://sodipodi.sourceforge.net/DTD/sodipodi-0.dtd"
   xmlns:inkscape="http://www.inkscape.org/namespaces/inkscape"
   version="1.1"
   id="Layer_1"
   x="0px"
   y="0px"
   width="288.79111"
   height="378.52899"
   viewBox="0 0 288.79111 378.52899"
   enable-background="new 0 0 1400 980"
   xml:space="preserve"
   sodipodi:docname="person.svg"
   inkscape:version="0.92.3 (2405546, 2018-03-11)"><metadata
   id="metadata651"><rdf:RDF><cc:Work
       rdf:about=""><dc:format>image/svg+xml</dc:format><dc:type
         rdf:resource="http://purl.org/dc/dcmitype/StillImage" /><dc:title /></cc:Work></rdf:RDF></metadata><defs
   id="defs649" /><sodipodi:namedview
   pagecolor="#ffffff"
   bordercolor="#666666"
   borderopacity="1"
   objecttolerance="10"
   gridtolerance="10"
   guidetolerance="10"
   inkscape:pageopacity="0"
   inkscape:pageshadow="2"
   inkscape:window-width="1869"
   inkscape:window-height="1136"
   id="namedview647"
   showgrid="false"
   fit-margin-top="0"
   fit-margin-left="0"
   fit-margin-right="0"
   fit-margin-bottom="0"
   inkscape:zoom="7.7061224"
   inkscape:cx="194.54005"
   inkscape:cy="35.324626"
   inkscape:window-x="51"
   inkscape:window-y="27"
   inkscape:window-maximized="1"
   inkscape:current-layer="g360" />




<g
   id="g422"
   transform="translate(-1005.5017,-536.518)">
	<g
   id="g360">
		<path
   d="m 1018.53,621.184 c -5.739,97.577 124.844,91.839 189.418,93.273 5.74,18.654 -11.479,37.31 -10.045,55.964 20.09,0 35.922,-58.259 41.663,-12.34 2.869,24.395 -8.15,12.26 -22.499,17.999 -12.916,5.739 -10.555,18.735 -20.599,31.65 25.83,10.045 68.879,-37.31 77.49,-58.835 5.739,-12.915 11.478,-33.003 10.043,-47.354 -2.868,-15.783 -12.914,-22.959 -14.35,-37.309 -5.739,-37.309 5.74,-67.444 -43.049,-83.228 -30.135,-8.611 -61.704,1.434 -91.839,-12.916 -18.654,-7.175 -28.699,-20.089 -43.05,-31.57 -14.35,12.915 -1.435,21.524 7.176,34.438 -7.176,-2.868 -27.266,-25.828 -34.441,-21.523 -8.608,5.74 8.611,28.699 11.481,34.438 -17.222,4.308 -18.655,-25.829 -35.875,-22.958 -24.395,4.304 2.87,27.266 1.435,37.309 0,28.701 -18.654,-17.218 -31.568,-7.175 -11.481,8.611 2.869,14.35 4.305,21.526"
   id="path302"
   inkscape:connector-curvature="0"
   style="fill:#9d9d9d;fill-opacity:1" />
		<g
   id="g306">
			<path
   d="m 1046.311,690.731 c -0.88,13.81 -3.131,27.449 -5.153,41.123 -1.75,11.833 -4.362,24.658 -2.548,36.603 3.182,20.952 17.607,37.947 33.991,50.438 7.681,5.854 16.757,8.797 26.35,9.043 10.008,0.257 19.943,-2.2 29.929,-2.633 10.923,-0.474 20.923,1.332 27.829,10.446 5.563,7.342 7.923,16.823 10.178,25.588 0.481,1.873 3.375,1.078 2.893,-0.797 -3.845,-14.944 -9.126,-32.288 -25.674,-37.066 -19.507,-5.632 -39.769,5.885 -59.221,-1.118 -10.785,-3.883 -20.009,-13.146 -27.396,-21.629 -7.509,-8.621 -13.111,-18.854 -15.486,-30.071 -2.716,-12.83 0.44,-27.138 2.325,-39.879 1.97,-13.317 4.126,-26.598 4.983,-40.047 0.123,-1.933 -2.878,-1.921 -3,-10e-4 z"
   id="path304"
   inkscape:connector-curvature="0" />
		</g>
		<g
   id="g310">
			<path
   d="m 1224.862,751.027 c 0.594,-3.081 1.975,-8.411 5.856,-5.332 3.709,2.941 5.909,8.009 7.324,12.385 1.324,4.092 2.436,9.506 0.139,13.458 -3.24,5.576 -12.617,1.455 -16.731,-0.425 -1.746,-0.798 -3.271,1.787 -1.514,2.59 5.717,2.613 15.25,6.374 20.182,0.266 3.778,-4.681 2.343,-11.974 0.658,-17.179 -1.672,-5.169 -4.642,-11.579 -9.598,-14.374 -5.541,-3.125 -8.373,3.477 -9.209,7.814 -0.364,1.89 2.527,2.696 2.893,0.797 z"
   id="path308"
   inkscape:connector-curvature="0" />
		</g>
		<g
   id="g314">
			<path
   d="m 1083.27,745.786 c -2.979,7.021 -7.697,13.01 -12.251,19.059 -0.616,0.817 0.067,1.929 0.896,2.203 4.163,1.381 8.244,2.601 12.649,2.776 1.936,0.077 1.928,-2.923 0,-3 -4.139,-0.165 -7.954,-1.376 -11.853,-2.669 0.299,0.734 0.598,1.469 0.896,2.203 4.555,-6.049 9.272,-12.037 12.251,-19.059 0.747,-1.758 -1.836,-3.289 -2.588,-1.513 z"
   id="path312"
   inkscape:connector-curvature="0" />
		</g>
		<g
   id="g318">
			<path
   d="m 1144.527,781.181 c -7.27,13.523 -27.043,16.126 -38.482,6.502 -1.47,-1.237 -3.604,0.874 -2.121,2.121 12.854,10.813 34.953,8.222 43.193,-7.109 0.916,-1.704 -1.674,-3.219 -2.59,-1.514 z"
   id="path316"
   inkscape:connector-curvature="0" />
		</g>
		<g
   id="g322">
			<path
   d="m 1132.814,739.671 c 7.602,4.282 16.762,5.634 24.655,1.36 1.702,-0.921 0.188,-3.511 -1.514,-2.59 -6.943,3.758 -14.991,2.378 -21.628,-1.36 -1.686,-0.951 -3.198,1.641 -1.513,2.59 z"
   id="path320"
   inkscape:connector-curvature="0" />
		</g>
		<g
   id="g326">
			<path
   d="m 1054.916,727.186 c 4.993,6.106 13.416,7.073 20.518,4.469 1.801,-0.66 1.023,-3.561 -0.797,-2.893 -6.189,2.27 -13.222,1.655 -17.6,-3.697 -1.225,-1.5 -3.335,0.636 -2.121,2.121 z"
   id="path324"
   inkscape:connector-curvature="0" />
		</g>
		<g
   id="g330">
			<path
   d="m 1215.917,781.905 c -26.73,4.132 -23.237,43.714 -8.829,58.657 1.345,1.395 3.464,-0.729 2.121,-2.121 -12.969,-13.45 -16.827,-49.883 7.505,-53.644 1.907,-0.294 1.095,-3.185 -0.797,-2.892 z"
   id="path328"
   inkscape:connector-curvature="0" />
		</g>
		<path
   d="m 1163.228,853.793 c -18.376,-12.251 -27.564,23.482 -43.898,32.67 19.396,3.063 19.396,22.46 35.731,2.042 7.146,-9.188 14.293,-22.462 10.208,-32.67"
   id="path332"
   inkscape:connector-curvature="0"
   style="fill:#3c5baa;fill-opacity:1" />
		<path
   d="m 1204.064,836.438 c 4.084,-5.105 14.293,12.25 -4.084,25.522 -10.209,7.146 -25.522,10.21 -34.712,19.396 -11.229,11.23 -3.062,18.378 -4.082,33.691 11.23,-2.043 19.397,-15.313 28.585,-21.44 9.188,-5.104 21.439,-8.167 29.606,-16.333 18.376,-17.355 7.146,-38.796 -12.25,-45.942"
   id="path334"
   inkscape:connector-curvature="0"
   style="fill:#3c5baa;fill-opacity:1" />
		<g
   id="g338">
			<path
   d="m 1225.902,863.407 c 21.444,-6.368 46.465,1.443 66.582,9.188 1.808,0.696 2.583,-2.205 0.797,-2.893 -20.602,-7.933 -46.202,-15.715 -68.176,-9.188 -1.85,0.55 -1.062,3.446 0.797,2.893 z"
   id="path336"
   inkscape:connector-curvature="0" />
		</g>
		<g
   id="g342">
			<path
   d="m 1145.873,857.398 c -18.971,0.955 -38.181,-0.695 -56.549,5.158 -1.836,0.585 -1.052,3.481 0.797,2.893 18.114,-5.772 37.049,-4.109 55.752,-5.051 1.925,-0.096 1.935,-3.097 0,-3 z"
   id="path340"
   inkscape:connector-curvature="0" />
		</g>
		<g
   id="g346">
			<path
   d="m 1264.626,679.646 c 7.713,-7.795 14.972,-16.55 16.885,-27.66 0.326,-1.892 -2.564,-2.701 -2.893,-0.797 -1.832,10.639 -8.73,18.874 -16.113,26.336 -1.361,1.375 0.759,3.497 2.121,2.121 z"
   id="path344"
   inkscape:connector-curvature="0" />
		</g>
		<g
   id="g350">
			<path
   d="m 1270.625,688.646 c 5.152,-4.864 12.029,-7.172 18.837,-8.614 1.893,-0.4 1.09,-3.293 -0.797,-2.893 -7.322,1.552 -14.632,4.165 -20.161,9.386 -1.409,1.329 0.716,3.448 2.121,2.121 z"
   id="path348"
   inkscape:connector-curvature="0" />
		</g>
		<g
   id="g354">
			<path
   d="m 1222.325,765.377 c 2.85,-1.527 3.982,-4.72 7.141,-5.849 -0.633,-0.482 -1.266,-0.964 -1.898,-1.446 -0.013,0.933 -0.071,1.824 -0.329,2.723 -0.071,0.247 -0.479,0.737 -0.241,0.64 -0.046,0.019 0.124,0.025 0.184,0.078 0.072,0.065 0.083,0.194 0.047,0.056 0.053,0.2 0.044,0.403 -0.1,0.564 1.282,-1.438 -0.831,-3.568 -2.121,-2.121 -1.344,1.507 -0.63,4.036 1.473,4.375 3.443,0.556 4.055,-3.885 4.088,-6.314 0.013,-0.923 -0.978,-1.775 -1.898,-1.446 -1.764,0.63 -3.278,1.527 -4.559,2.904 -1.08,1.162 -1.863,2.478 -3.299,3.247 -1.708,0.913 -0.192,3.503 1.512,2.589 z"
   id="path352"
   inkscape:connector-curvature="0" />
		</g>
		<g
   id="g358">
			<path
   d="m 1207.863,721.341 c 4.002,-5.183 9.2,-9.551 15.603,-11.311 1.863,-0.512 1.071,-3.406 -0.797,-2.893 -7.204,1.979 -12.905,6.873 -17.396,12.689 -1.182,1.532 1.426,3.023 2.59,1.515 z"
   id="path356"
   inkscape:connector-curvature="0" />
		</g>
	</g>
	
	<g
   id="g412">
		<path
   d="m 1038.939,607.061 c 4.763,4.628 10.406,8.229 16.304,11.234 1.72,0.877 3.238,-1.711 1.514,-2.59 -5.675,-2.894 -11.111,-6.311 -15.696,-10.766 -1.388,-1.348 -3.511,0.772 -2.122,2.122 z"
   id="path410"
   inkscape:connector-curvature="0" />
	</g>
	<g
   id="g416">
		<path
   d="m 1072.939,583.061 c 3.256,4.21 7.576,7.788 12.304,10.234 1.715,0.888 3.232,-1.7 1.514,-2.59 -4.531,-2.346 -8.575,-5.73 -11.696,-9.766 -1.183,-1.528 -3.29,0.612 -2.122,2.122 z"
   id="path414"
   inkscape:connector-curvature="0" />
	</g>
	<g
   id="g420">
		<path
   d="m 1097.602,567.446 c 5.73,1.379 10.138,5.814 16,7 1.889,0.382 2.692,-2.51 0.797,-2.893 -5.845,-1.183 -10.249,-5.616 -16,-7 -1.88,-0.451 -2.678,2.441 -0.797,2.893 z"
   id="path418"
   inkscape:connector-curvature="0" />
	</g>
</g>


</svg>