<?xml version="1.0" encoding="UTF-8" standalone="no"?>
<svg
   xmlns:dc="http://purl.org/dc/elements/1.1/"
   xmlns:cc="http://creativecommons.org/ns#"
   xmlns:rdf="http://www.w3.org/1999/02/22-rdf-syntax-ns#"
   xmlns:svg="http://www.w3.org/2000/svg"
   xmlns="http://www.w3.org/2000/svg"
   xmlns:sodipodi="http://sodipodi.sourceforge.net/DTD/sodipodi-0.dtd"
   xmlns:inkscape="http://www.inkscape.org/namespaces/inkscape"
   width="256"
   height="256"
   viewBox="0 0 256 256"
   version="1.1"
   id="svg4"
   sodipodi:docname="questionmark.svg"
   style="fill:none"
   inkscape:version="0.92.3 (2405546, 2018-03-11)">
  <metadata
     id="metadata10">
    <rdf:RDF>
      <cc:Work
         rdf:about="">
        <dc:format>image/svg+xml</dc:format>
        <dc:type
           rdf:resource="http://purl.org/dc/dcmitype/StillImage" />
        <dc:title></dc:title>
      </cc:Work>
    </rdf:RDF>
  </metadata>
  <defs
     id="defs8" />
  <sodipodi:namedview
     pagecolor="#ffffff"
     bordercolor="#666666"
     borderopacity="1"
     objecttolerance="10"
     gridtolerance="10"
     guidetolerance="10"
     inkscape:pageopacity="0"
     inkscape:pageshadow="2"
     inkscape:window-width="1869"
     inkscape:window-height="1136"
     id="namedview6"
     showgrid="false"
     inkscape:zoom="1.9666667"
     inkscape:cx="36"
     inkscape:cy="60"
     inkscape:window-x="51"
     inkscape:window-y="27"
     inkscape:window-maximized="1"
     inkscape:current-layer="svg4" />
  <path
     d="M 197.29855,44.242464 C 186.60977,24.763363 174.01871,7.9605832 145.58975,2.0458497 117.15292,-3.880817 92.728266,6.8159161 76.312218,20.372307 59.904189,33.932739 53.036268,51.122421 52.270507,66.776747 c -0.757784,15.658156 7.689519,34.048383 9.922995,36.281863 3.81684,3.82094 41.598338,3.05518 44.462078,1.1446 2.86353,-1.91441 -0.57432,-7.059273 3.24642,-15.658155 3.8169,-8.594841 14.50164,-14.704993 22.32688,-14.31807 7.82504,0.37884 10.87618,4.770066 14.3102,12.982026 3.43381,8.211959 -1.52769,16.041039 -7.44236,22.342629 -5.91467,6.30159 -15.45885,16.23248 -22.51812,34.18005 -7.05949,17.94758 -8.77437,41.63051 -5.53179,49.45554 3.23854,7.83312 8.77437,8.216 15.4548,8.78628 6.68044,0.57433 25.19021,1.33605 31.10892,-1.9144 5.91085,-3.24259 6.10229,-6.68044 7.43833,-20.04534 1.33604,-13.36895 4.77007,-22.34263 9.92302,-37.23524 5.15294,-14.89643 19.46314,-33.80121 23.85033,-46.974679 4.38718,-13.177508 9.16512,-32.082286 -1.52366,-51.561387 z m -4.19574,29.406157 c -1.14461,8.4034 -3.24237,14.31807 -3.24237,14.31807 0,0 -9.54013,-27.87846 -12.59532,-28.448741 -3.05497,-0.574322 -3.05497,2.293248 -2.67209,2.863529 0.38289,0.574323 14.88453,30.750072 14.50165,31.890846 -0.38289,1.144603 -3.05115,8.973685 -3.42999,7.637635 -0.38692,-1.34008 -9.35273,-23.874154 -11.2631,-23.874154 -1.9144,0 -4.19978,1.714884 -3.42998,2.863529 0.75768,1.144816 12.78251,23.104565 12.01674,25.397815 -0.75768,2.29325 -4.00813,9.35677 -4.00813,7.82908 0,-1.52749 -7.44237,-18.521902 -8.97389,-19.096225 -1.52345,-0.574322 -4.00431,0.765763 -2.85949,1.914408 1.1446,1.140775 10.11445,20.811317 9.54013,21.955917 -0.57432,1.14461 -2.86374,5.15699 -3.42998,4.77411 -0.57836,-0.38288 -7.2588,-17.18989 -9.16533,-17.18989 -1.91441,0 -2.67209,1.34008 -2.48469,1.9144 0.19144,0.57433 8.97368,19.47911 8.58697,20.81919 -0.38288,1.33222 -3.42998,9.54418 -3.81691,8.77437 -0.38288,-0.75768 -8.20408,-21.37755 -9.54013,-21.19398 -1.33221,0.19144 -2.09394,4.00813 -2.09394,4.00813 0,0 10.3059,20.24103 10.11446,21.57708 -0.1874,1.33604 -6.10207,13.36086 -7.81717,23.49127 -1.72296,10.1185 -2.87161,16.60749 -3.05497,16.03317 -0.19144,-0.57028 -12.78676,-26.53838 -13.36108,-26.53838 -0.57028,0 -4.38718,1.71489 -3.05093,4.00814 1.33201,2.28942 12.01674,22.90908 13.353,25.00706 1.33605,2.10585 2.67209,3.44189 1.52749,5.5437 -1.14078,2.1018 -2.47278,4.00834 -4.18788,3.82094 -1.72297,-0.19144 -3.25045,-1.14481 -3.25045,-1.14481 0,0 2.67209,-1.14057 1.91441,-2.47278 -0.76577,-1.34009 -6.3016,-11.65385 -8.01648,-16.99824 -1.72297,-5.34439 -1.72297,-5.53583 -3.24662,-5.53583 -1.52345,0 -2.8597,1.91441 -1.71489,4.77411 1.1446,2.86353 9.34869,19.28766 8.97368,20.24082 -0.38692,0.9572 -5.72727,1.52748 -5.72727,0.57432 0,-0.95316 -5.53179,-14.70499 -7.82503,-14.89643 -2.29346,-0.19144 -3.05519,2.87161 -2.09798,3.62929 0.9572,0.76576 6.48899,11.46262 4.9615,11.27118 -1.52748,-0.19144 -7.44215,0.38289 -9.16129,-1.9144 -1.71488,-2.28942 -3.62929,-8.9739 -1.52748,-24.05773 2.09798,-15.08383 6.86804,-30.17192 16.60344,-42.39605 9.73158,-12.21627 19.6546,-20.61988 18.13115,-35.137474 -1.53152,-14.50951 -9.9311,-24.248954 -20.80323,-24.440395 -10.87618,-0.191441 -24.99898,2.101807 -30.90961,13.56039 -5.918711,11.454328 -3.6295,18.517855 -5.535829,18.705254 C 97.119493,97.710176 70.796362,96.940584 70.796362,96.940584 69.264836,95.026176 60.295048,76.891203 65.260533,57.986424 70.22204,39.081646 81.672561,26.287019 95.60392,19.032221 c 13.93115,-7.258796 34.34746,-13.3729263 57.05723,-5.731248 22.70956,7.641657 32.44113,24.061747 36.254,35.520117 3.80882,11.454541 5.3363,16.420089 4.18766,24.819448 z M 177.83562,45.38728 c -1.14482,0.574322 -1.7151,2.293248 -1.7151,3.05497 0,0.757892 0.37884,1.527484 4.57458,5.918711 4.19979,4.387185 8.20409,21.198026 9.1613,22.34263 0.94912,1.140774 0,0 1.14056,-0.765764 1.14481,-0.765763 -1.71489,-8.59484 -4.19957,-18.146885 -2.47278,-9.544175 -7.41451,-13.18155 -8.96177,-12.403662 z m -25.38186,84.59258 c -1.33222,0 -3.23855,1.72297 -3.23855,3.05923 0,1.33604 7.44216,17.94757 8.20388,18.33045 0.7579,0.38288 1.7151,-0.38288 2.09798,-1.52769 0.38693,-1.14461 -5.85085,-19.86199 -7.06331,-19.86199 z m -10.29399,12.41579 c -0.38288,0.75789 9.54013,23.10456 10.49734,24.24917 0.9572,1.14864 0.75768,-0.1874 1.71488,-1.90654 0.95721,-1.71488 -7.6336,-24.36871 -8.58293,-24.44848 -2.48469,-0.1874 -3.24641,1.34009 -3.62929,2.10585 z M 78.984519,45.38728 c -1.715097,1.144603 -5.531937,7.258584 -6.676583,19.287447 -1.144646,12.028864 1.495557,17.54874 2.863721,18.330456 1.336044,0.757893 3.054969,0.757893 3.816691,-1.914408 0.765763,-2.672088 -2.672088,-6.301592 -2.093724,-12.028863 0.574322,-5.72727 4.199573,-16.423918 7.633595,-21.385426 3.429981,-4.965548 -3.828816,-3.434022 -5.5437,-2.289206 z m 47.333521,165.36869 c -5.91467,1.14864 -22.32667,5.35162 -23.66272,17.76336 -1.33625,12.41175 1.71489,24.63205 19.84582,26.73365 18.1271,2.10372 33.39451,-5.15614 36.63709,-9.54652 3.24237,-4.38825 7.05928,-12.2203 2.09777,-22.91333 -4.95747,-10.69708 -21.83213,-14.57375 -34.91796,-12.03716 z m 27.09675,23.30026 c -2.28517,0.19144 -4.57459,-10.31015 -6.85975,-10.5016 -2.29346,-0.19994 -5.34439,-0.9572 -3.25067,1.9059 2.09798,2.86311 8.01669,14.31765 6.68065,14.89622 -1.33626,0.57433 -3.05518,3.05668 -3.42998,2.48235 -0.38693,-0.57432 -5.54392,-14.51759 -6.87209,-14.89834 -1.33604,-0.38289 -3.81669,1.14651 -2.86353,2.48234 0.94912,1.33584 5.52775,13.93902 5.52775,13.93902 0,0 -1.71489,2.29304 -2.67209,0.75726 -0.9572,-1.52302 -4.96151,-11.64599 -5.72323,-11.64599 -0.75789,0 -3.24258,1.33584 -2.8597,2.29304 0.38288,0.9572 5.72323,11.4588 3.62929,11.4588 -2.1018,0 -11.07166,1.71445 -19.08409,-4.0075 -8.01265,-5.72408 -4.19979,-21.38606 15.07596,-25.39781 7.55787,-1.57194 16.41201,1.52727 18.50573,3.62887 2.09798,2.09734 6.48921,12.41174 4.19979,12.60318 z m -30.15172,-7.82993 c -6.29372,4.1968 -6.29372,9.93152 -4.76602,13.93476 1.52748,4.00962 4.38697,3.82243 6.10207,3.24811 1.72296,-0.57432 -0.57028,-1.91441 -1.33222,-5.53689 -0.75768,-3.62887 1.91441,-6.68341 2.6723,-9.3572 0.76577,-2.67166 -1.54343,-3.04178 -2.6723,-2.29304 z"
     id="path2"
     inkscape:connector-curvature="0"
     style="fill:#49586f;stroke-width:2.12712002" />
</svg>
