<?xml version="1.0" encoding="UTF-8" standalone="no"?>
<svg
   xmlns:dc="http://purl.org/dc/elements/1.1/"
   xmlns:cc="http://creativecommons.org/ns#"
   xmlns:rdf="http://www.w3.org/1999/02/22-rdf-syntax-ns#"
   xmlns:svg="http://www.w3.org/2000/svg"
   xmlns="http://www.w3.org/2000/svg"
   xmlns:sodipodi="http://sodipodi.sourceforge.net/DTD/sodipodi-0.dtd"
   xmlns:inkscape="http://www.inkscape.org/namespaces/inkscape"
   width="256"
   height="256"
   viewBox="0 0 256 256"
   version="1.1"
   id="svg4"
   sodipodi:docname="speechbubble.svg"
   style="fill:none"
   inkscape:version="0.92.3 (2405546, 2018-03-11)">
  <metadata
     id="metadata10">
    <rdf:RDF>
      <cc:Work
         rdf:about="">
        <dc:format>image/svg+xml</dc:format>
        <dc:type
           rdf:resource="http://purl.org/dc/dcmitype/StillImage" />
        <dc:title></dc:title>
      </cc:Work>
    </rdf:RDF>
  </metadata>
  <defs
     id="defs8" />
  <sodipodi:namedview
     pagecolor="#ffffff"
     bordercolor="#666666"
     borderopacity="1"
     objecttolerance="10"
     gridtolerance="10"
     guidetolerance="10"
     inkscape:pageopacity="0"
     inkscape:pageshadow="2"
     inkscape:window-width="1869"
     inkscape:window-height="1136"
     id="namedview6"
     showgrid="false"
     inkscape:zoom="2.3137255"
     inkscape:cx="60"
     inkscape:cy="102.86441"
     inkscape:window-x="51"
     inkscape:window-y="27"
     inkscape:window-maximized="1"
     inkscape:current-layer="svg4" />
  <path
     d="M 232.01192,158.91037 C 246.96373,144.50205 258.45873,119.13902 255.58871,94.068331 252.70803,69.001901 229.1355,34.126642 192.04511,26.633942 154.95578,19.141221 110.39267,14.809868 71.002638,30.091807 31.612815,45.373683 10.339459,67.274985 4.305943,87.441051 -1.7275799,107.60732 -6.3367308,140.46312 25.571275,167.84156 c 31.908156,27.37844 96.024265,25.64363 96.024265,25.64363 0,0 16.68407,14.41238 35.36882,25.65152 18.68475,11.23894 53.18936,18.73106 58.07927,16.71672 4.88862,-2.01648 3.16021,-8.93567 3.44828,-12.68184 0.28807,-3.74638 0,0 -8.33819,-11.52764 -8.33798,-11.52764 -13.22724,-33.42873 -11.7869,-34.29827 1.44034,-0.85738 18.68475,-4.02677 33.63656,-18.43125 h 0.009 z m -47.34456,-2.68458 c 1.72051,1.72308 12.84315,13.82344 12.07497,14.98553 -0.76818,1.14992 -5.36127,0.38068 -6.13351,1.72286 -0.77629,1.35029 -1.16038,3.46194 -1.16038,3.46194 0,0 -11.88293,-19.40492 -13.80338,-19.59334 -1.90851,-0.20037 -6.12156,-1.16188 -5.16133,2.87706 0.96022,4.03466 19.5449,25.36303 20.50513,26.70521 0.96022,1.35435 5.74941,15.18568 11.12285,23.4398 5.36127,8.27012 8.24217,10.76629 6.51354,10.76629 -1.72841,0 -5.94146,1.15398 -6.90169,-0.96172 -0.96023,-2.11144 -37.56944,-56.86853 -40.24997,-57.63778 -2.68885,-0.76136 -5.36938,0.20037 -4.02912,2.12359 1.34432,1.91534 39.68195,54.37237 39.68195,54.37237 0,0 -10.35062,-2.88495 -12.84315,-4.80818 -2.49276,-1.92323 -32.96825,-50.14523 -35.07691,-51.10674 -2.10845,-0.96172 -6.89764,1.92323 -4.98124,3.64609 1.92046,1.73503 32.00802,44.95637 32.00802,44.95637 0,0 -14.37546,-5.1848 -16.48412,-8.25411 -2.10845,-3.07721 -22.04555,-37.08293 -24.34199,-38.2367 -2.29665,-1.15398 -4.21326,0.76925 -3.82896,1.92323 0.38409,1.14993 23.76585,33.80941 22.61763,33.61693 -1.14822,-0.19226 -12.26723,-6.14631 -16.10003,-12.10057 -3.83302,-5.95811 -5.36149,-10.9545 -7.28194,-11.14675 -1.92046,-0.19248 -5.56143,1.53849 -6.13351,0.76925 -0.57614,-0.76925 -10.73471,-13.83155 -12.45906,-13.63908 -1.72052,0.19226 -2.30071,2.11143 -1.14843,3.64609 1.14437,1.54255 6.89785,9.80073 5.16944,9.80073 -1.72052,0 -4.02507,1.15376 -5.56143,-0.19248 -1.52847,-1.34624 -9.77042,-12.6814 -12.643209,-11.91216 -2.880683,0.76925 -4.601198,3.26563 -3.072729,4.41961 1.532311,1.15377 6.321498,6.53105 4.409153,6.7233 -1.920669,0.19226 -34.116679,-1.15398 -56.926357,-14.60079 C 19.633803,148.54482 10.239425,135.28642 7.5587466,122.02781 4.8780894,108.76536 12.159923,86.868111 12.159923,86.868111 15.80083,76.498506 24.042806,63.817098 40.335097,52.866447 56.627175,41.915796 71.962866,31.349941 110.87279,27.503417 c 38.9097,-3.838521 73.02638,-3.646198 102.35366,15.56636 29.32664,19.208609 33.73728,43.225404 34.88956,47.452534 1.14373,4.22714 2.29601,11.339219 1.52783,9.988929 -0.76819,-1.346239 -6.13266,-6.338779 -7.47484,-4.419389 -1.34005,1.92323 -3.0642,0.38473 -0.96023,3.26541 2.11037,2.884949 8.24302,7.300509 8.43507,9.223739 0.19204,1.92322 0.19204,8.26201 -1.14801,7.10803 -1.34432,-1.15398 -9.58734,-11.91216 -11.69557,-9.98893 -2.10824,1.92323 -3.64033,2.30796 -1.71988,3.6542 1.91192,1.34624 11.30295,10.95065 11.30295,13.26245 0,2.30007 0,5.37728 -1.71988,4.2233 -1.73267,-1.16209 -11.69984,-14.98553 -12.84358,-13.0623 -1.1608,1.92344 -3.64246,1.72307 -2.50086,3.6463 1.14801,1.92323 13.03563,13.82344 12.84358,16.13546 -0.19204,2.3039 -1.722,5.18864 -2.30241,4.03466 -0.57613,-1.14993 -10.73321,-14.02381 -12.84144,-13.44682 -2.10824,0.57699 -3.0706,1.53872 -2.49233,3.64631 0.57614,2.11549 13.03349,13.45087 11.88122,15.18568 -1.14801,1.72308 -2.30028,4.80029 -3.25624,3.45383 -0.96023,-1.34624 -11.69131,-16.33155 -13.99159,-16.13929 -2.30454,0.19226 -4.60055,1.53871 -2.68863,3.84646 1.92045,2.30006 14.56345,14.59674 13.8038,17.09717 -0.77244,2.49211 -2.68863,6.53105 -4.60055,5.18459 -1.92046,-1.34624 -16.68492,-19.59312 -17.8293,-19.21245 -1.14822,0.38068 -5.17328,1.92323 -2.68074,4.03083 2.4887,2.11548 15.90308,16.90875 14.75507,18.63162 -1.148,1.73481 -3.64033,6.15036 -5.17243,4.6157 -1.53252,-1.53849 -14.76382,-20.94342 -16.86842,-20.17417 -2.1044,0.76136 -4.78919,0.96172 -3.06078,3.83857 1.72841,2.87684 15.52389,18.25499 14.56367,19.40897 -0.96023,1.16188 -3.64076,4.61571 -5.93741,2.69248 -2.29665,-1.92323 -13.22341,-19.59313 -15.33185,-18.83199 -2.12061,0.77736 -5.18139,3.08532 -3.45682,4.80818 l 0.008,-0.009 z M 50.297567,63.612676 c -4.213053,0.384731 -24.338146,13.639075 -29.327426,25.162665 -4.989258,11.523579 -0.408118,27.422609 0.580127,28.247979 2.300492,1.92323 6.521654,-0.19226 4.985289,-3.84646 -1.52036,-3.64631 -1.140324,-10.75434 1.348373,-21.516569 2.492538,-10.75434 20.509185,-21.3241 23.193769,-23.051016 2.680742,-1.723076 3.448925,-5.377276 -0.768182,-4.996599 h -0.0079 z M 213.22645,62.851322 c 2.30156,1.923443 3.64161,-0.388572 4.40979,-2.50022 0.76819,-2.115488 -1.722,-7.300291 -12.84379,-14.216065 -11.12285,-6.915752 -37.16935,-8.494431 -39.28996,-4.227136 -0.38814,0.769249 -0.58019,4.227136 1.72052,4.80818 2.30049,0.580832 11.12263,0.761141 22.04554,1.149927 10.9227,0.376622 21.65741,13.062085 23.9579,14.985314 z M 71.770821,86.852111 c -13.991372,6.91577 -11.882926,24.593779 -5.561213,30.355569 6.329608,5.76969 18.212534,5.56954 25.686307,1.5385 7.481881,-4.03466 13.419495,-12.30073 5.753471,-22.670339 -7.669873,-10.37771 -21.793543,-11.2432 -25.878565,-9.22373 z M 93.236392,110.8689 c -1.920455,2.68458 -15.143858,5.56953 -17.824601,4.41961 -2.680529,-1.16209 -7.857864,-11.5317 2.10866,-14.98553 2.692692,-0.937609 9.202183,-1.161879 12.651108,1.34218 3.448925,2.50428 4.985289,6.53126 3.064833,9.21563 z M 127.42092,90.241931 c -0.28017,0.1483 -0.54413,0.3205 -0.83219,0.4528 -6.70965,3.07315 -9.2024,12.100359 -8.62626,14.600789 0.57613,2.49617 2.3007,12.48915 12.84336,15.75457 10.54266,3.26562 23.76585,-0.19226 28.17501,-4.99639 4.40915,-4.80818 7.09373,-14.79711 -0.19205,-22.678439 -7.06984,-7.64107 -21.91752,-8.05376 -31.36787,-3.14144 z m 24.08614,24.469589 c -4.60119,2.49616 -14.56366,2.49616 -16.67638,0.9615 -2.10845,-1.53849 -8.62604,-12.10057 3.83302,-16.716279 4.89332,-1.8031 13.03541,0.58083 17.06026,3.269469 4.02506,2.69269 0.38409,9.99298 -4.2169,12.48915 z m 40.82611,4.23503 c 9.2024,4.60781 16.48434,1.92323 21.65848,-1.5385 5.17242,-3.45789 9.00907,-10.17735 2.30027,-22.478289 -6.71028,-12.30073 -22.51029,-10.25737 -28.75178,-4.22714 -10.73086,10.377719 -4.40125,23.640169 4.79303,28.247979 z m 2.30071,-16.52403 c 2.08839,-1.50244 9.58243,-1.5385 13.60344,0 4.0289,1.53871 7.67051,6.14653 4.41299,8.26201 -3.25666,2.11571 -9.58243,6.53105 -14.9516,4.9966 -5.36148,-1.53871 -10.53071,-7.87749 -3.05693,-13.26266 z"
     id="path2"
     inkscape:connector-curvature="0"
     style="fill:#49586f;stroke-width:2.13383961" />
</svg>
