<?xml version="1.0" encoding="UTF-8" standalone="no"?>
<!-- Generator: Adobe Illustrator 16.0.0, SVG Export Plug-In . SVG Version: 6.00 Build 0)  -->

<svg
   xmlns:dc="http://purl.org/dc/elements/1.1/"
   xmlns:cc="http://creativecommons.org/ns#"
   xmlns:rdf="http://www.w3.org/1999/02/22-rdf-syntax-ns#"
   xmlns:svg="http://www.w3.org/2000/svg"
   xmlns="http://www.w3.org/2000/svg"
   xmlns:sodipodi="http://sodipodi.sourceforge.net/DTD/sodipodi-0.dtd"
   xmlns:inkscape="http://www.inkscape.org/namespaces/inkscape"
   version="1.1"
   id="Layer_1"
   x="0px"
   y="0px"
   width="480"
   height="640"
   viewBox="0 0 480 640"
   enable-background="new 0 0 1400 980"
   xml:space="preserve"
   sodipodi:docname="unhappy.svg"
   inkscape:version="0.92.3 (2405546, 2018-03-11)"><metadata
   id="metadata651"><rdf:RDF><cc:Work
       rdf:about=""><dc:format>image/svg+xml</dc:format><dc:type
         rdf:resource="http://purl.org/dc/dcmitype/StillImage" /><dc:title></dc:title></cc:Work></rdf:RDF></metadata><defs
   id="defs649" /><sodipodi:namedview
   pagecolor="#ffffff"
   bordercolor="#666666"
   borderopacity="1"
   objecttolerance="10"
   gridtolerance="10"
   guidetolerance="10"
   inkscape:pageopacity="0"
   inkscape:pageshadow="2"
   inkscape:window-width="1869"
   inkscape:window-height="1136"
   id="namedview647"
   showgrid="false"
   fit-margin-top="0"
   fit-margin-left="0"
   fit-margin-right="0"
   fit-margin-bottom="0"
   inkscape:zoom="0.48163265"
   inkscape:cx="-340.21065"
   inkscape:cy="-154.41734"
   inkscape:window-x="51"
   inkscape:window-y="27"
   inkscape:window-maximized="1"
   inkscape:current-layer="Layer_1"
   inkscape:snap-page="true"
   inkscape:snap-global="false" />

<g
   id="g84"
   transform="matrix(1.6022382,0,0,1.6022382,-1579.6927,-85.013444)">
	<g
   id="g74">
		<path
   d="m 1183.817,344.97 c -20.017,7.506 -41.283,16.263 -58.799,28.773 v 0 0 c -2.501,10.009 -6.255,18.766 -7.507,28.774 15.013,-3.753 86.322,-38.783 63.804,-56.297"
   id="path4"
   inkscape:connector-curvature="0"
   style="fill:#778692;fill-opacity:1" />
		<path
   d="m 1127.521,359.982 c -8.757,-1.251 -26.271,7.506 -36.28,13.761 -1.25,3.753 -1.25,12.511 0,16.263 23.771,-6.254 27.523,-16.263 37.532,-32.527"
   id="path6"
   inkscape:connector-curvature="0"
   style="fill:#778692;fill-opacity:1" />
		<path
   d="m 1118.764,378.749 c -6.256,0 -23.771,13.761 -31.275,18.765 2.502,20.017 18.765,15.012 28.772,2.502"
   id="path8"
   inkscape:connector-curvature="0"
   style="fill:#3c5baa;fill-opacity:1" />
		<path
   d="m 1093.742,411.275 c -2.502,8.757 -15.012,25.021 -20.017,36.28 12.511,2.501 27.523,1.251 41.285,1.251 0,-11.26 -11.26,-33.779 -17.515,-42.536"
   id="path10"
   inkscape:connector-curvature="0"
   style="fill:#3c5baa;fill-opacity:1" />
		<path
   d="m 1009.924,88.508 c -27.522,37.532 5.006,90.076 46.29,95.08 27.522,3.753 56.296,-1.251 85.07,3.753 16.263,2.502 30.025,5.003 35.029,23.77 2.503,6.255 -3.754,35.03 0,38.782 v 0 c 10.009,2.502 11.261,-8.757 12.511,-17.514 -1.25,5.004 -1.25,11.259 -2.502,17.514 10.008,-1.25 25.021,0 20.016,15.013 -3.753,11.259 -20.016,5.004 -21.267,23.77 23.77,-20.017 120.551,-92.648 74.262,-127.677 18.765,-20.017 8.101,-57.317 -10.666,-77.333 -23.769,-23.77 -82.058,-29.168 -113.334,-26.667 -26.271,1.251 -55.349,27.756 -80.37,18.999 -17.515,-5.004 -51.293,-31.276 -45.039,12.51 v 0"
   id="path12"
   inkscape:connector-curvature="0"
   style="fill:#3c5baa;fill-opacity:1" />
		<path
   d="m 1026.188,281.17 c 7.506,10.008 25.021,-3.753 37.531,0 5.005,1.25 10.008,7.506 16.265,8.756 5.004,1.251 12.509,-1.25 17.514,1.251 13.762,6.256 17.515,16.264 8.757,31.276 -15.012,26.271 -40.033,37.532 -61.301,13.762 -10.008,-11.26 -30.024,-41.285 -21.268,-55.046"
   id="path14"
   inkscape:connector-curvature="0"
   style="fill:#c2cadf;fill-opacity:1" />
		<path
   d="m 1024.938,281.17 c -8.758,-17.515 -2.502,-27.523 10.009,-36.28 13.761,-10.009 45.038,-5.004 58.799,3.753 22.518,12.51 16.264,60.05 0,43.786 -8.757,-10.008 1.251,-25.021 -15.013,-35.029 -6.256,-5.004 -28.773,-8.757 -36.281,-3.752 -10.007,7.506 -2.502,23.77 -12.51,28.773"
   id="path16"
   inkscape:connector-curvature="0"
   style="fill:#c2cadf;fill-opacity:1" />
		<g
   id="g20">
			<path
   d="m 1035.946,169.825 c -0.171,23.628 -7.604,46.751 -11.047,69.998 -3.019,20.382 -3.611,41.79 9.711,58.737 14.708,18.71 37.408,26.386 60.631,24.921 4.896,-0.309 9.724,-1.083 14.491,-2.225 3.652,-0.874 7.688,-2.474 11.499,-1.925 4.346,0.626 6.305,5.901 7.634,9.411 2.504,6.611 2.143,13.6 1.465,20.515 -0.421,4.295 -1.132,8.561 -1.752,12.83 -0.275,1.892 2.615,2.706 2.893,0.798 1.672,-11.508 4.231,-23.649 0.287,-34.941 -2.151,-6.16 -5.644,-12.016 -12.864,-11.673 -3.365,0.16 -6.712,1.29 -9.959,2.092 -5.912,1.461 -11.926,2.127 -18.007,2.323 -12.35,0.396 -24.613,-2.199 -35.474,-8.14 -10.753,-5.881 -20.719,-15.851 -25.464,-27.25 -4.219,-10.134 -4.315,-21.609 -3.572,-32.383 1.646,-23.859 8.941,-46.92 11.742,-70.627 0.489,-4.137 0.756,-8.296 0.786,-12.462 0.014,-1.934 -2.986,-1.932 -3,10e-4 z"
   id="path18"
   inkscape:connector-curvature="0" />
		</g>
		<g
   id="g24">
			<path
   d="m 1189.825,206.105 c -1.812,14.518 -3.669,29.137 -3.752,43.787 -0.01,1.034 1.322,2.008 2.257,1.295 3.56,-2.715 8.273,-5.486 12.794,-3.401 3.265,1.505 4.871,5.155 5.544,8.471 0.69,3.404 0.097,7.419 -2.186,10.122 -3.236,3.833 -8.774,2.456 -12.759,0.833 -0.775,-0.316 -1.625,0.338 -1.845,1.047 -8.473,27.34 -7.468,56.019 -10.062,84.219 -0.178,1.927 2.824,1.91 3,0 2.57,-27.936 1.562,-56.336 9.955,-83.421 -0.615,0.349 -1.23,0.698 -1.845,1.047 4.972,2.027 10.481,2.756 14.896,-0.833 3.638,-2.958 4.46,-8.446 3.892,-12.811 -0.593,-4.561 -2.931,-9.028 -7.075,-11.264 -5.354,-2.888 -11.483,0.092 -15.822,3.401 0.752,0.432 1.505,0.864 2.257,1.295 0.083,-14.65 1.939,-29.269 3.752,-43.787 0.238,-1.916 -2.764,-1.893 -3.001,0 z"
   id="path22"
   inkscape:connector-curvature="0" />
		</g>
		<g
   id="g28">
			<path
   d="m 1191.136,264.714 c 2.643,-2.764 4.14,-6 8.096,-7.121 -0.564,-0.229 -1.129,-0.459 -1.693,-0.689 0.834,1.251 1.668,2.502 2.502,3.753 0.078,-0.605 0.156,-1.211 0.234,-1.817 -0.319,0.308 -1.497,1.084 -1.137,1.243 -0.339,-0.149 -0.642,-0.538 -0.913,-0.779 -1.164,-1.037 -2.512,-1.67 -3.999,-2.1 -1.862,-0.538 -2.652,2.357 -0.797,2.893 1.864,0.539 2.766,1.948 4.416,2.675 1.808,0.795 3.33,-0.63 4.551,-1.81 0.463,-0.447 0.601,-1.268 0.234,-1.817 -0.834,-1.251 -1.668,-2.502 -2.502,-3.753 -0.374,-0.561 -1.018,-0.881 -1.693,-0.689 -4.594,1.3 -6.344,4.674 -9.42,7.892 -1.336,1.396 0.782,3.52 2.121,2.119 z"
   id="path26"
   inkscape:connector-curvature="0" />
		</g>
		<g
   id="g32">
			<path
   d="m 1066.748,219.362 c -0.642,5.711 -3.558,11.477 -7.484,15.621 -0.522,0.551 -0.642,1.589 0,2.121 1.834,1.522 3.681,2.303 6.064,2.524 1.927,0.179 1.717,-2.823 -0.192,-3 -1.494,-0.071 -2.136,-0.62 -4.136,-1.646 0,0.707 0,1.414 0,2.121 5,-4.766 7.821,-11.205 8.556,-17.742 0.215,-1.92 -2.595,-1.899 -2.808,0.001 z"
   id="path30"
   inkscape:connector-curvature="0" />
		</g>
		<g
   id="g36">
			<path
   d="m 1116.206,219.194 c 0.886,-0.066 1.573,-0.621 1.616,-1.554 0.037,-0.812 -0.745,-1.627 -1.577,-1.554 -1.833,0.161 -1.94,2.268 -1.955,3.693 -0.011,1.025 0.961,1.639 1.898,1.446 1.128,-0.231 2.209,-0.6 2.896,-1.581 0.714,-1.019 0.702,-2.427 0.708,-3.618 0.01,-1.048 -0.955,-1.608 -1.898,-1.446 -1.297,0.222 -2.703,0.891 -3.258,2.166 -0.477,1.097 -0.441,2.4 0.276,3.396 0.663,0.92 1.823,1.593 2.977,1.161 1.502,-0.563 2.053,-2.162 2.266,-3.626 0.149,-1.026 -0.394,-1.795 -1.446,-1.899 -1.473,-0.145 -3.859,-0.16 -4.599,1.467 -0.897,1.973 1.044,3.447 2.591,4.247 0.671,0.347 1.696,0.23 2.052,-0.539 0.424,-0.915 0.622,-1.691 0.479,-2.696 -0.094,-0.654 -0.594,-1.177 -0.896,-1.736 -0.921,-1.702 -3.511,-0.188 -2.59,1.514 0.15,0.279 0.336,0.533 0.506,0.801 0.205,0.324 -0.013,-0.167 0.088,0.219 -0.045,-0.17 -0.157,0.342 -0.177,0.385 0.684,-0.18 1.368,-0.359 2.052,-0.539 -0.395,-0.204 -0.81,-0.412 -1.15,-0.698 0.013,0.011 -0.365,-0.408 -0.214,-0.197 -0.091,-0.162 -0.094,-0.158 -0.01,0.011 0.058,0.222 0.025,0.438 -0.098,0.649 -0.038,0.084 -0.386,0.312 -0.098,0.149 -0.174,0.099 0.361,-0.074 0.45,-0.09 0.504,-0.093 1.107,0.003 1.613,0.053 -0.482,-0.633 -0.964,-1.266 -1.446,-1.899 -0.069,0.473 -0.162,0.933 -0.315,1.385 0.061,-0.179 -0.129,0.24 -0.161,0.294 0.199,-0.326 -0.299,0.204 0.102,-0.08 -0.082,0.058 0.141,-0.039 0.292,-0.052 -0.16,-0.004 -0.104,0.006 0.168,0.032 -0.148,-0.044 -0.103,-0.02 0.136,0.072 -0.351,-0.155 0.145,0.157 -0.037,-0.006 -0.296,-0.268 0.091,0.164 -0.047,-0.049 -0.053,-0.081 -0.176,-0.375 -0.017,0.017 -0.049,-0.122 -0.078,-0.25 -0.104,-0.379 0.086,0.433 0.024,0.021 0.032,-0.104 -0.033,0.54 0.152,-0.292 -0.041,0.151 0.039,-0.089 0.314,-0.431 0.087,-0.169 0.235,-0.271 0.015,-0.053 0.21,-0.177 0.292,-0.187 0.646,-0.26 1.124,-0.342 -0.633,-0.482 -1.266,-0.964 -1.898,-1.446 0,0.516 -0.015,1.03 -0.068,1.543 -0.019,0.18 -0.062,0.296 -0.164,0.466 0.168,-0.282 0.013,-0.035 -0.066,0.037 0.336,-0.302 -0.341,0.109 0.011,-0.029 -0.356,0.14 -0.74,0.212 -1.113,0.289 0.633,0.482 1.266,0.964 1.898,1.446 0,-0.397 0.011,-0.85 0.07,-1.159 0.019,-0.094 0.168,-0.479 -0.016,-0.065 0.012,-0.022 0.024,-0.043 0.036,-0.065 -0.421,0.659 -1.129,0.719 -2.124,0.18 -0.129,-0.221 -0.257,-0.441 -0.386,-0.662 -0.017,-0.123 -0.033,-0.245 -0.049,-0.368 0.068,-0.252 0.137,-0.505 0.205,-0.757 0.393,-0.23 0.785,-0.459 1.179,-0.689 -1.917,0.143 -1.931,3.144 0,3.001 z"
   id="path34"
   inkscape:connector-curvature="0" />
		</g>
		<g
   id="g40">
			<path
   d="m 1045.918,206.208 c -1.038,1.04 -1.664,2.054 -1.69,3.562 -0.011,0.599 0.46,1.359 1.102,1.446 1.359,0.185 2.715,0.294 4.004,-0.261 0.838,-0.361 1.505,-1.268 1.428,-2.207 -0.18,-2.164 -2.491,-3.002 -4.366,-2.704 -0.994,0.158 -2.146,0.841 -2.607,1.758 -0.549,1.089 -0.221,2.149 0.5,3.05 0.994,1.239 3.38,2.148 4.815,1.189 0.728,-0.486 1.119,-1.306 1.055,-2.181 -0.011,-0.147 -0.01,-0.289 0,-0.436 -0.034,0.441 0.021,-0.066 0.05,-0.177 0.059,-0.229 0.149,-0.448 0.23,-0.669 0.324,-0.88 -0.04,-1.668 -0.751,-2.208 -0.676,-0.513 -1.935,-0.502 -2.713,-0.601 -0.887,-0.112 -1.403,0.774 -1.5,1.5 -0.184,1.377 0.031,2.997 1.342,3.765 1.126,0.661 2.433,0.244 3.386,-0.497 0.961,-0.748 1.325,-2.044 0.793,-3.148 -0.685,-1.421 -2.655,-1.61 -4.021,-1.62 -1.936,-0.014 -1.934,2.986 0,3 0.294,0.002 0.586,0.014 0.878,0.04 0.425,0.038 -0.305,-0.054 0.082,0.013 0.136,0.023 0.27,0.058 0.402,0.095 0.097,0.027 0.402,0.151 -0.03,-0.032 0.069,0.03 0.136,0.066 0.201,0.104 0.109,0.062 0.274,0.231 -0.094,-0.082 0.256,0.217 -0.17,-0.268 -0.056,-0.092 -0.042,-0.064 -0.09,-0.298 -0.096,-0.39 0.01,0.129 -0.057,0.343 0.038,-0.209 -0.022,0.129 -0.147,0.385 0.073,-0.123 -0.059,0.136 -0.312,0.447 0.035,0.01 -0.082,0.104 -0.181,0.193 -0.283,0.277 0.424,-0.349 0.095,-0.083 -0.037,-0.012 -0.106,0.057 -0.334,0.133 0.146,-0.056 -0.071,0.028 -0.145,0.048 -0.219,0.066 -0.324,0.082 0.435,-0.006 0.017,-0.015 -0.246,-0.005 0.426,0.075 0.187,0.025 -0.317,-0.067 0.312,0.159 0.11,0.056 -0.111,-0.057 -0.254,-0.211 0.123,0.107 -0.088,-0.075 -0.226,-0.271 0.076,0.126 -0.039,-0.052 -0.07,-0.11 -0.102,-0.167 -0.109,-0.202 0.129,0.389 0.02,0.008 -0.024,-0.083 -0.038,-0.169 -0.053,-0.255 0.081,0.474 0.018,0.004 0.015,-0.106 -0.01,-0.296 0.026,-0.593 0.065,-0.887 -0.5,0.5 -1,1 -1.5,1.5 0.377,0.048 0.314,0.037 0.709,0.101 0.195,0.032 0.389,0.071 0.578,0.125 0.271,0.076 -0.342,-0.168 -0.129,-0.06 -0.117,-0.06 -0.425,-0.465 -0.532,-0.728 -0.065,-0.16 0.092,-0.845 -0.055,-0.426 -0.099,0.281 -0.206,0.553 -0.272,0.844 -0.067,0.298 -0.1,0.606 -0.123,0.91 -0.012,0.149 -0.044,0.902 0.045,0.313 -0.02,0.129 -0.135,0.329 0.071,-0.117 -0.104,0.225 0.266,-0.295 0.101,-0.118 -0.166,0.177 0.333,-0.224 0.121,-0.103 0.363,-0.207 0.289,-0.111 0.137,-0.069 -0.254,0.07 0.417,-0.037 0.145,-0.018 -0.068,0.005 -0.138,0.002 -0.207,-0.001 -0.285,-0.012 0.398,0.067 0.107,0.017 -0.102,-0.018 -0.202,-0.045 -0.303,-0.073 -0.077,-0.022 -0.153,-0.05 -0.229,-0.077 -0.289,-0.104 0.335,0.152 0.055,0.021 -0.151,-0.07 -0.295,-0.155 -0.436,-0.245 -0.085,-0.054 -0.325,-0.24 0.038,0.043 -0.062,-0.049 -0.121,-0.103 -0.18,-0.156 -0.057,-0.052 -0.109,-0.108 -0.161,-0.165 -0.175,-0.19 0.219,0.332 0.018,0.012 -0.185,-0.293 0.073,0.354 -0.019,-0.072 0.094,0.44 0.033,0.299 0.041,0.146 -0.021,0.441 -0.047,0.296 0,0.147 -0.141,0.411 -0.097,0.231 -0.015,0.11 -0.241,0.355 -0.107,0.15 -0.014,0.062 -0.298,0.277 -0.083,0.065 0.012,0.004 0.07,-0.045 0.523,-0.256 0.152,-0.104 0.178,-0.073 0.366,-0.12 0.555,-0.156 -0.48,0.093 0.069,0.011 0.216,0.017 0.314,0.012 -0.375,-0.066 -0.071,-0.014 0.078,0.013 0.155,0.034 0.231,0.054 0.074,0.02 0.146,0.047 0.219,0.074 -0.458,-0.171 -0.141,-0.054 -0.03,0.008 0.397,0.226 -0.17,-0.178 0.07,0.05 0.249,0.235 -0.188,-0.334 0.021,0.028 0.123,0.212 -0.143,-0.386 -0.066,-0.158 0.043,0.129 0.026,0.335 -0.018,-0.197 0.011,0.135 -0.063,0.326 0.036,-0.2 -0.04,0.211 0.218,-0.398 0.051,-0.122 0.215,-0.355 0.198,-0.24 0.085,-0.131 0.307,-0.294 0.217,-0.158 0.089,-0.081 -0.096,0.058 -0.343,0.138 0.074,-0.022 -0.085,0.032 -0.173,0.055 -0.261,0.078 -0.1,0.026 -0.201,0.042 -0.303,0.059 0.411,-0.068 0,-0.012 -0.073,-0.007 -0.343,0.021 -0.687,0.003 -1.027,-0.022 0.058,0.004 -0.496,-0.052 -0.31,-0.027 0.367,0.482 0.734,0.964 1.102,1.446 0,-0.117 0,-0.234 0.013,-0.352 -0.025,0.137 -0.021,0.12 0.012,-0.051 0.021,-0.088 0.045,-0.174 0.075,-0.259 -0.071,0.16 -0.068,0.164 0.01,0.012 0.042,-0.074 0.088,-0.145 0.137,-0.214 -0.102,0.13 -0.095,0.126 0.02,-0.01 0.171,-0.199 0.361,-0.382 0.547,-0.567 1.367,-1.371 -0.754,-3.492 -2.122,-2.121 z"
   id="path38"
   inkscape:connector-curvature="0" />
		</g>
		<g
   id="g44">
			<path
   d="m 1072.629,270.139 c -2.362,-7.03 -13.681,-11.061 -20.012,-7.171 -1.645,1.011 -0.14,3.606 1.514,2.591 4.597,-2.825 13.858,0.179 15.605,5.378 0.614,1.824 3.511,1.042 2.893,-0.798 z"
   id="path42"
   inkscape:connector-curvature="0" />
		</g>
		<g
   id="g48">
			<path
   d="m 1190.472,357.675 c 11.979,-2.376 25.198,0.342 36.865,3.125 12.082,2.882 25.96,6.879 35.487,15.255 1.446,1.272 3.577,-0.841 2.121,-2.121 -9.663,-8.496 -23.301,-12.578 -35.509,-15.705 -12.513,-3.206 -26.885,-6.001 -39.762,-3.446 -1.897,0.376 -1.091,3.267 0.798,2.892 z"
   id="path46"
   inkscape:connector-curvature="0" />
		</g>
		<g
   id="g52">
			<path
   d="m 1217.787,401.458 c -6.846,7.182 -11.443,17.164 -12.896,26.933 -0.281,1.892 2.609,2.706 2.893,0.798 1.381,-9.284 5.608,-18.773 12.125,-25.61 1.333,-1.4 -0.785,-3.524 -2.122,-2.121 z"
   id="path50"
   inkscape:connector-curvature="0" />
		</g>
		<g
   id="g56">
			<path
   d="m 1172.705,99.243 c -6.98,12.228 -18.213,1.52 -25.981,-4.03 -6.519,-4.658 -12.967,-5.019 -20.781,-4.077 -10.436,1.257 -33.864,7.589 -30.861,22.496 2.997,14.875 21.804,16.765 34.032,15.691 12.263,-1.076 30.701,-5.988 35.824,-18.832 5.24,-13.139 -7.982,-24.133 -19.86,-25.636 -12.955,-1.639 -28.773,4.13 -31.603,18.269 -2.975,14.863 9.07,21.891 21.796,23.663 7.17,0.998 14.438,0.986 21.653,1.386 5.307,0.294 12.78,0.329 16.795,4.417 3.975,4.046 -0.049,12.268 -3.512,15.246 -4.625,3.978 -11.926,3.187 -17.356,1.838 -12.575,-3.122 -26.976,-12.921 -30.723,-25.915 -1.99,-6.902 1.235,-13.057 6.417,-17.513 6.646,-5.717 16.465,-5.872 24.644,-4.407 10.839,1.941 37.038,13.471 26.935,28.413 -4.706,6.96 -16.115,11.579 -24.295,11.636 -6.742,0.047 -11.927,-4.461 -15.8,-9.526 -7.521,-9.836 -11.938,-23.158 -23.384,-29.364 -6.158,-3.339 -12.942,-2.625 -19.519,-1.149 -7.958,1.786 -17.164,5.214 -21.949,12.211 -3.78,5.529 -0.67,12.01 3.609,16.087 5.828,5.553 14.172,8.515 21.691,10.904 14.878,4.727 31.336,7.782 46.64,3.519 19.887,-5.54 35.027,-21.36 55.281,-26.124 0.953,-0.224 1.367,-1.389 0.896,-2.203 -5.733,-9.937 -19.582,-15.022 -29.968,-17.975 -9.771,-2.778 -24.88,-5.221 -32.388,3.671 -0.55,0.651 -0.581,1.473 0,2.121 6.418,7.168 14.936,11.462 22.945,16.547 10.004,6.352 17.245,15.36 18.426,27.498 1.031,10.604 -7.217,13.334 -16.121,11.533 -10.168,-2.056 -20.214,-8.104 -26.851,-15.992 -7.9,-9.392 -5.745,-21.055 3.722,-28.217 7.954,-6.019 18.909,-8.476 28.697,-6.999 7.639,1.153 17.941,4.669 20.512,12.831 1.377,4.375 -1.064,9.605 -3.982,12.779 -3.117,3.389 -8.362,3.107 -12.48,2.402 -7.674,-1.313 -14.961,-4.784 -22.2,-7.506 -5.63,-2.117 -11.903,-4.468 -18.005,-3.382 -5.626,1 -13.1,4.499 -13.007,11.13 0.085,6.032 6.987,10.327 11.701,12.556 12.964,6.129 29.815,4.222 42.095,-2.623 5.404,-3.012 9.818,-7.6 11.937,-13.452 2.581,-7.132 -0.26,-14.829 -4.032,-20.922 -0.564,0.734 -1.129,1.469 -1.693,2.203 14.619,2.667 35.438,25.279 16.583,36.761 -7.285,4.436 -15.982,-1.725 -21.124,-6.637 -5.266,-5.03 -9.916,-11.813 -11.614,-18.97 -0.349,0.615 -0.698,1.23 -1.048,1.845 28.649,-6.11 29.538,55.639 57.358,41.849 1.733,-0.859 0.213,-3.447 -1.514,-2.591 -13.7,6.792 -21.422,-12.819 -26.724,-21.966 -6.495,-11.208 -15.308,-23.301 -29.918,-20.185 -0.82,0.175 -1.229,1.086 -1.048,1.845 3.324,14.012 21.9,36.683 38.025,26.863 8.688,-5.291 9.667,-15.655 5.356,-24.018 -4.402,-8.542 -14.065,-15.963 -23.537,-17.69 -1.22,-0.223 -2.441,0.996 -1.693,2.203 5.535,8.941 6.456,18.673 -1.498,26.39 -6.814,6.612 -17.295,9.185 -26.492,9.628 -9.266,0.447 -21.537,-1.94 -27.053,-10.203 -3.517,-5.269 2.373,-8.722 6.675,-10.263 4.607,-1.651 8.798,-0.905 13.372,0.43 11.758,3.431 34.497,18.21 44.834,5.089 4.428,-5.62 5.571,-13.187 1.211,-19.103 -4.355,-5.909 -12.32,-8.665 -19.226,-10.017 -15.116,-2.96 -35.505,3.544 -41.27,18.996 -6.776,18.161 15.802,32.628 30.166,37.066 5.852,1.808 13.363,2.753 18.562,-1.213 6.239,-4.76 4.592,-14.356 2.617,-20.78 C 1177.45,119.758 1156,116.1 1143,101.939 c 0,0.707 0,1.414 0,2.121 7,-8.36 21.635,-5.135 30.642,-2.575 9.199,2.616 21.974,7.476 27.048,16.271 0.299,-0.734 0.605,-1.469 0.904,-2.203 -21.977,5.169 -38.349,22.95 -60.552,27.384 -9.033,1.804 -18.325,0.319 -27.221,-1.53 -9.011,-1.874 -18.072,-4.493 -26.235,-8.807 -6.939,-3.667 -15.34,-11.188 -8.275,-18.964 6.145,-6.764 18.129,-9.697 26.932,-10.124 14.466,-0.702 21.641,15.77 28.124,25.914 6.994,10.943 16.145,18.092 29.615,14.187 12.474,-3.617 27.629,-14.797 18.166,-28.677 -8.228,-12.068 -26.383,-17.764 -40.336,-16.732 -12.63,0.934 -24.916,10.747 -23.011,24.334 1.762,12.556 14.624,22.231 25.282,27.161 9.053,4.187 23.726,7.411 30.62,-2.286 2.708,-3.809 4.754,-10.025 2.709,-14.546 -2.004,-4.431 -7.031,-5.941 -11.442,-6.75 -13.628,-2.497 -29.04,0.825 -41.839,-5.456 -7,-3.435 -9.199,-11.146 -7.388,-18.411 1.905,-7.648 9.36,-12.083 16.506,-13.872 7.394,-1.851 15.708,-0.815 22.146,3.324 6.174,3.97 9.678,12.107 6.185,18.904 -3.426,6.666 -11.522,10.381 -18.231,12.688 -7.962,2.74 -16.571,3.773 -24.955,3.109 -7.403,-0.587 -15.261,-3.1 -19.138,-9.867 -4.779,-8.339 3.855,-14.701 10.502,-17.868 5.929,-2.824 12.655,-4.287 19.167,-4.842 6.312,-0.538 11.063,0.343 16.285,3.975 9.542,6.635 21.942,17.221 30.086,2.954 0.96,-1.681 -1.633,-3.192 -2.591,-1.512 z"
   id="path54"
   inkscape:connector-curvature="0" />
		</g>
		<g
   id="g60">
			<path
   d="m 1216.757,99.295 c 2.3,-1.208 4.213,-0.466 4.848,2.075 0.835,3.34 -1.856,6.569 -4.361,8.334 -1.568,1.105 -0.071,3.708 1.514,2.591 3.943,-2.778 6.877,-7.178 5.631,-12.162 -1.086,-4.347 -5.559,-5.313 -9.145,-3.429 -1.715,0.901 -0.198,3.49 1.513,2.591 z"
   id="path58"
   inkscape:connector-curvature="0" />
		</g>
		<g
   id="g64">
			<path
   d="m 1218,121 c 0,-0.667 0,-1.333 0,-2 0,-1.935 -3,-1.935 -3,0 0,0.667 0,1.333 0,2 0,1.935 3,1.935 3,0 z"
   id="path62"
   inkscape:connector-curvature="0" />
		</g>
		<g
   id="g68">
			<path
   d="m 1230,105.5 c 2.721,0.079 4.605,1.237 3.903,4.146 -0.676,2.796 -3.162,4.909 -5.66,6.059 -1.756,0.809 -0.23,3.394 1.514,2.591 3.563,-1.641 6.859,-5.084 7.277,-9.141 0.455,-4.404 -3.051,-6.539 -7.034,-6.655 -1.936,-0.056 -1.931,2.944 0,3 z"
   id="path66"
   inkscape:connector-curvature="0" />
		</g>
		<g
   id="g72">
			<path
   d="m 1223,129 c 0,-0.667 0,-1.333 0,-2 0,-1.935 -3,-1.935 -3,0 0,0.667 0,1.333 0,2 0,1.935 3,1.935 3,0 z"
   id="path70"
   inkscape:connector-curvature="0" />
		</g>
	</g>
	<g
   id="g78">
		<path
   d="m 1080.67,368.653 c -25.589,8.834 -52.988,10.419 -76.854,24.15 -1.676,0.964 -0.166,3.557 1.514,2.591 23.633,-13.596 50.801,-15.1 76.138,-23.848 1.816,-0.628 1.035,-3.526 -0.798,-2.893 z"
   id="path76"
   inkscape:connector-curvature="0" />
	</g>
	<g
   id="g82">
		<path
   d="m 1010.939,89.061 c 7.499,6.563 14.344,15.004 25.061,15.439 1.936,0.079 1.928,-2.922 0,-3 -9.745,-0.396 -16.145,-8.614 -22.939,-14.561 -1.45,-1.268 -3.581,0.845 -2.122,2.122 z"
   id="path80"
   inkscape:connector-curvature="0" />
	</g>
</g>





</svg>